<?xml version="1.0" encoding="utf-8" standalone="no"?>
<!DOCTYPE svg PUBLIC "-//W3C//DTD SVG 1.1//EN"
  "http://www.w3.org/Graphics/SVG/1.1/DTD/svg11.dtd">
<svg xmlns:xlink="http://www.w3.org/1999/xlink" width="432pt" height="288pt" viewBox="0 0 432 288" xmlns="http://www.w3.org/2000/svg" version="1.1">
 <metadata>
  <rdf:RDF xmlns:dc="http://purl.org/dc/elements/1.1/" xmlns:cc="http://creativecommons.org/ns#" xmlns:rdf="http://www.w3.org/1999/02/22-rdf-syntax-ns#">
   <cc:Work>
    <dc:type rdf:resource="http://purl.org/dc/dcmitype/StillImage"/>
    <dc:date>2024-02-13T10:51:41.352124</dc:date>
    <dc:format>image/svg+xml</dc:format>
    <dc:creator>
     <cc:Agent>
      <dc:title>Matplotlib v3.5.2, https://matplotlib.org/</dc:title>
     </cc:Agent>
    </dc:creator>
   </cc:Work>
  </rdf:RDF>
 </metadata>
 <defs>
  <style type="text/css">*{stroke-linejoin: round; stroke-linecap: butt}</style>
 </defs>
 <g id="figure_1">
  <g id="patch_1">
   <path d="M 0 288 
L 432 288 
L 432 0 
L 0 0 
L 0 288 
z
" style="fill: none"/>
  </g>
  <g id="axes_1">
   <g id="patch_2">
    <path d="M 41.8 122.6 
L 421.2 122.6 
L 421.2 23.8 
L 41.8 23.8 
z
" style="fill: #ffffff"/>
   </g>
   <g id="matplotlib.axis_1">
    <g id="xtick_1">
     <g id="line2d_1">
      <path d="M 59.045455 122.6 
L 59.045455 23.8 
" clip-path="url(#p537cb9b2cc)" style="fill: none; stroke: #b0b0b0; stroke-opacity: 0.2; stroke-width: 0.8; stroke-linecap: square"/>
     </g>
     <g id="line2d_2">
      <defs>
       <path id="me409065734" d="M 0 0 
L 0 3.5 
" style="stroke: #000000; stroke-width: 0.8"/>
      </defs>
      <g>
       <use xlink:href="#me409065734" x="59.045455" y="122.6" style="stroke: #000000; stroke-width: 0.8"/>
      </g>
     </g>
     <g id="text_1">
      <!-- 0 -->
      <g transform="translate(56.276705 136.5875)scale(0.1 -0.1)">
       <defs>
        <path id="Cambria-30" d="M 1738 -50 
Q 1063 -50 733 481 
Q 403 1013 403 2094 
Q 403 2669 504 3087 
Q 606 3506 789 3779 
Q 972 4053 1228 4184 
Q 1484 4316 1788 4316 
Q 2472 4316 2806 3787 
Q 3141 3259 3141 2191 
Q 3141 1084 2783 517 
Q 2425 -50 1738 -50 
z
M 1013 2188 
Q 1013 1169 1202 692 
Q 1391 216 1788 216 
Q 2166 216 2348 664 
Q 2531 1113 2531 2053 
Q 2531 2772 2437 3217 
Q 2344 3663 2176 3856 
Q 2009 4050 1772 4050 
Q 1556 4050 1411 3922 
Q 1266 3794 1177 3553 
Q 1088 3313 1050 2967 
Q 1013 2622 1013 2188 
z
" transform="scale(0.015625)"/>
       </defs>
       <use xlink:href="#Cambria-30"/>
      </g>
     </g>
    </g>
    <g id="xtick_2">
     <g id="line2d_3">
      <path d="M 128.027273 122.6 
L 128.027273 23.8 
" clip-path="url(#p537cb9b2cc)" style="fill: none; stroke: #b0b0b0; stroke-opacity: 0.2; stroke-width: 0.8; stroke-linecap: square"/>
     </g>
     <g id="line2d_4">
      <g>
       <use xlink:href="#me409065734" x="128.027273" y="122.6" style="stroke: #000000; stroke-width: 0.8"/>
      </g>
     </g>
     <g id="text_2">
      <!-- 2 -->
      <g transform="translate(125.258523 136.5875)scale(0.1 -0.1)">
       <defs>
        <path id="Cambria-32" d="M 2194 500 
Q 2347 500 2440 519 
Q 2534 538 2590 581 
Q 2647 625 2680 695 
Q 2713 766 2763 913 
L 3028 913 
L 2975 0 
L 403 0 
L 403 150 
Q 538 478 766 822 
Q 994 1166 1413 1631 
Q 1775 2031 1934 2238 
Q 2109 2463 2195 2627 
Q 2281 2791 2318 2936 
Q 2356 3081 2356 3228 
Q 2356 3463 2281 3642 
Q 2206 3822 2051 3925 
Q 1897 4028 1663 4028 
Q 1078 4028 875 3378 
L 497 3378 
L 497 3978 
Q 875 4156 1204 4236 
Q 1534 4316 1797 4316 
Q 2378 4316 2675 4061 
Q 2972 3806 2972 3322 
Q 2972 3156 2939 3017 
Q 2906 2878 2836 2742 
Q 2766 2606 2647 2450 
Q 2528 2294 2384 2133 
Q 2241 1972 1888 1597 
Q 1294 969 1016 500 
L 2194 500 
z
" transform="scale(0.015625)"/>
       </defs>
       <use xlink:href="#Cambria-32"/>
      </g>
     </g>
    </g>
    <g id="xtick_3">
     <g id="line2d_5">
      <path d="M 197.009091 122.6 
L 197.009091 23.8 
" clip-path="url(#p537cb9b2cc)" style="fill: none; stroke: #b0b0b0; stroke-opacity: 0.2; stroke-width: 0.8; stroke-linecap: square"/>
     </g>
     <g id="line2d_6">
      <g>
       <use xlink:href="#me409065734" x="197.009091" y="122.6" style="stroke: #000000; stroke-width: 0.8"/>
      </g>
     </g>
     <g id="text_3">
      <!-- 4 -->
      <g transform="translate(194.240341 136.5875)scale(0.1 -0.1)">
       <defs>
        <path id="Cambria-34" d="M 1613 153 
Q 1806 203 1872 264 
Q 1938 325 1958 437 
Q 1978 550 1978 781 
L 1978 1294 
L 241 1294 
L 241 1528 
L 2069 4288 
L 2516 4288 
L 2516 1597 
L 2581 1597 
Q 2763 1597 2841 1623 
Q 2919 1650 2970 1717 
Q 3022 1784 3066 1938 
L 3303 1938 
L 3266 1294 
L 2516 1294 
L 2516 781 
Q 2516 572 2530 475 
Q 2544 378 2576 322 
Q 2609 266 2673 228 
Q 2738 191 2881 153 
L 2881 0 
L 1613 0 
L 1613 153 
z
M 756 1597 
L 1978 1597 
L 1978 2375 
Q 1978 2669 1987 3033 
Q 1997 3397 2009 3581 
L 1978 3581 
L 756 1641 
L 756 1597 
z
" transform="scale(0.015625)"/>
       </defs>
       <use xlink:href="#Cambria-34"/>
      </g>
     </g>
    </g>
    <g id="xtick_4">
     <g id="line2d_7">
      <path d="M 265.990909 122.6 
L 265.990909 23.8 
" clip-path="url(#p537cb9b2cc)" style="fill: none; stroke: #b0b0b0; stroke-opacity: 0.2; stroke-width: 0.8; stroke-linecap: square"/>
     </g>
     <g id="line2d_8">
      <g>
       <use xlink:href="#me409065734" x="265.990909" y="122.6" style="stroke: #000000; stroke-width: 0.8"/>
      </g>
     </g>
     <g id="text_4">
      <!-- 6 -->
      <g transform="translate(263.222159 136.5875)scale(0.1 -0.1)">
       <defs>
        <path id="Cambria-36" d="M 2847 4144 
L 2847 3991 
Q 2366 3991 1994 3784 
Q 1622 3578 1376 3178 
Q 1131 2778 1031 2228 
L 1063 2216 
Q 1325 2403 1579 2490 
Q 1834 2578 2131 2578 
Q 2484 2578 2732 2423 
Q 2981 2269 3106 1989 
Q 3231 1709 3231 1334 
Q 3231 928 3075 617 
Q 2919 306 2592 128 
Q 2266 -50 1788 -50 
Q 1103 -50 754 375 
Q 406 800 406 1628 
Q 406 2184 581 2668 
Q 756 3153 1078 3514 
Q 1400 3875 1825 4083 
Q 2250 4291 2719 4316 
L 2847 4144 
z
M 1916 2250 
Q 1763 2250 1620 2215 
Q 1478 2181 1353 2115 
Q 1228 2050 1109 1950 
Q 1072 1916 1053 1878 
Q 1022 1819 1012 1731 
Q 1003 1644 1003 1438 
Q 1003 841 1203 528 
Q 1403 216 1809 216 
Q 2044 216 2203 297 
Q 2363 378 2461 520 
Q 2559 663 2601 855 
Q 2644 1047 2644 1272 
Q 2644 1734 2453 1992 
Q 2263 2250 1916 2250 
z
" transform="scale(0.015625)"/>
       </defs>
       <use xlink:href="#Cambria-36"/>
      </g>
     </g>
    </g>
    <g id="xtick_5">
     <g id="line2d_9">
      <path d="M 334.972727 122.6 
L 334.972727 23.8 
" clip-path="url(#p537cb9b2cc)" style="fill: none; stroke: #b0b0b0; stroke-opacity: 0.2; stroke-width: 0.8; stroke-linecap: square"/>
     </g>
     <g id="line2d_10">
      <g>
       <use xlink:href="#me409065734" x="334.972727" y="122.6" style="stroke: #000000; stroke-width: 0.8"/>
      </g>
     </g>
     <g id="text_5">
      <!-- 8 -->
      <g transform="translate(332.203977 136.5875)scale(0.1 -0.1)">
       <defs>
        <path id="Cambria-38" d="M 2475 2253 
L 2481 2213 
Q 2834 2075 3015 1811 
Q 3197 1547 3197 1175 
Q 3197 809 3022 531 
Q 2847 253 2514 101 
Q 2181 -50 1738 -50 
Q 1322 -50 1008 89 
Q 694 228 520 495 
Q 347 763 347 1125 
Q 347 1397 440 1597 
Q 534 1797 686 1926 
Q 838 2056 1069 2163 
L 1063 2203 
Q 391 2494 391 3200 
Q 391 3522 567 3775 
Q 744 4028 1070 4172 
Q 1397 4316 1794 4316 
Q 2244 4316 2550 4189 
Q 2856 4063 3011 3823 
Q 3166 3584 3166 3250 
Q 3166 2906 2997 2657 
Q 2828 2409 2475 2253 
z
M 978 3228 
Q 978 3044 1022 2881 
Q 1066 2719 1162 2600 
Q 1259 2481 1414 2411 
Q 1569 2341 1794 2341 
Q 2053 2341 2229 2442 
Q 2406 2544 2492 2739 
Q 2578 2934 2578 3191 
Q 2578 3472 2476 3667 
Q 2375 3863 2197 3956 
Q 2019 4050 1788 4050 
Q 1394 4050 1186 3836 
Q 978 3622 978 3228 
z
M 944 1178 
Q 944 975 991 798 
Q 1038 622 1139 494 
Q 1241 366 1400 291 
Q 1559 216 1788 216 
Q 2044 216 2226 320 
Q 2409 425 2504 631 
Q 2600 838 2600 1119 
Q 2600 1419 2497 1636 
Q 2394 1853 2206 1967 
Q 2019 2081 1772 2081 
Q 1541 2081 1383 2009 
Q 1225 1938 1126 1816 
Q 1028 1694 986 1530 
Q 944 1366 944 1178 
z
" transform="scale(0.015625)"/>
       </defs>
       <use xlink:href="#Cambria-38"/>
      </g>
     </g>
    </g>
    <g id="xtick_6">
     <g id="line2d_11">
      <path d="M 403.954545 122.6 
L 403.954545 23.8 
" clip-path="url(#p537cb9b2cc)" style="fill: none; stroke: #b0b0b0; stroke-opacity: 0.2; stroke-width: 0.8; stroke-linecap: square"/>
     </g>
     <g id="line2d_12">
      <g>
       <use xlink:href="#me409065734" x="403.954545" y="122.6" style="stroke: #000000; stroke-width: 0.8"/>
      </g>
     </g>
     <g id="text_6">
      <!-- 10 -->
      <g transform="translate(398.417045 136.5875)scale(0.1 -0.1)">
       <defs>
        <path id="Cambria-31" d="M 2172 816 
Q 2172 634 2192 542 
Q 2213 450 2264 392 
Q 2316 334 2412 301 
Q 2509 269 2656 251 
Q 2803 234 3044 228 
L 3044 0 
L 734 0 
L 734 228 
Q 1081 244 1229 270 
Q 1378 297 1456 350 
Q 1534 403 1570 500 
Q 1606 597 1606 816 
L 1606 3350 
Q 1606 3475 1562 3533 
Q 1519 3591 1434 3591 
Q 1334 3591 1150 3487 
Q 966 3384 694 3203 
L 556 3444 
L 2019 4316 
L 2191 4316 
Q 2172 4016 2172 3484 
L 2172 816 
z
" transform="scale(0.015625)"/>
       </defs>
       <use xlink:href="#Cambria-31"/>
       <use xlink:href="#Cambria-30" x="55.371094"/>
      </g>
     </g>
    </g>
    <g id="xtick_7">
     <g id="line2d_13">
      <path d="M 76.290909 122.6 
L 76.290909 23.8 
" clip-path="url(#p537cb9b2cc)" style="fill: none; stroke: #b0b0b0; stroke-opacity: 0.2; stroke-width: 0.8; stroke-linecap: square"/>
     </g>
     <g id="line2d_14">
      <defs>
       <path id="mf7a22475a7" d="M 0 0 
L 0 2 
" style="stroke: #000000; stroke-width: 0.1"/>
      </defs>
      <g>
       <use xlink:href="#mf7a22475a7" x="76.290909" y="122.6" style="stroke: #000000; stroke-width: 0.1"/>
      </g>
     </g>
    </g>
    <g id="xtick_8">
     <g id="line2d_15">
      <path d="M 93.536364 122.6 
L 93.536364 23.8 
" clip-path="url(#p537cb9b2cc)" style="fill: none; stroke: #b0b0b0; stroke-opacity: 0.2; stroke-width: 0.8; stroke-linecap: square"/>
     </g>
     <g id="line2d_16">
      <g>
       <use xlink:href="#mf7a22475a7" x="93.536364" y="122.6" style="stroke: #000000; stroke-width: 0.1"/>
      </g>
     </g>
    </g>
    <g id="xtick_9">
     <g id="line2d_17">
      <path d="M 110.781818 122.6 
L 110.781818 23.8 
" clip-path="url(#p537cb9b2cc)" style="fill: none; stroke: #b0b0b0; stroke-opacity: 0.2; stroke-width: 0.8; stroke-linecap: square"/>
     </g>
     <g id="line2d_18">
      <g>
       <use xlink:href="#mf7a22475a7" x="110.781818" y="122.6" style="stroke: #000000; stroke-width: 0.1"/>
      </g>
     </g>
    </g>
    <g id="xtick_10">
     <g id="line2d_19">
      <path d="M 145.272727 122.6 
L 145.272727 23.8 
" clip-path="url(#p537cb9b2cc)" style="fill: none; stroke: #b0b0b0; stroke-opacity: 0.2; stroke-width: 0.8; stroke-linecap: square"/>
     </g>
     <g id="line2d_20">
      <g>
       <use xlink:href="#mf7a22475a7" x="145.272727" y="122.6" style="stroke: #000000; stroke-width: 0.1"/>
      </g>
     </g>
    </g>
    <g id="xtick_11">
     <g id="line2d_21">
      <path d="M 162.518182 122.6 
L 162.518182 23.8 
" clip-path="url(#p537cb9b2cc)" style="fill: none; stroke: #b0b0b0; stroke-opacity: 0.2; stroke-width: 0.8; stroke-linecap: square"/>
     </g>
     <g id="line2d_22">
      <g>
       <use xlink:href="#mf7a22475a7" x="162.518182" y="122.6" style="stroke: #000000; stroke-width: 0.1"/>
      </g>
     </g>
    </g>
    <g id="xtick_12">
     <g id="line2d_23">
      <path d="M 179.763636 122.6 
L 179.763636 23.8 
" clip-path="url(#p537cb9b2cc)" style="fill: none; stroke: #b0b0b0; stroke-opacity: 0.2; stroke-width: 0.8; stroke-linecap: square"/>
     </g>
     <g id="line2d_24">
      <g>
       <use xlink:href="#mf7a22475a7" x="179.763636" y="122.6" style="stroke: #000000; stroke-width: 0.1"/>
      </g>
     </g>
    </g>
    <g id="xtick_13">
     <g id="line2d_25">
      <path d="M 214.254545 122.6 
L 214.254545 23.8 
" clip-path="url(#p537cb9b2cc)" style="fill: none; stroke: #b0b0b0; stroke-opacity: 0.2; stroke-width: 0.8; stroke-linecap: square"/>
     </g>
     <g id="line2d_26">
      <g>
       <use xlink:href="#mf7a22475a7" x="214.254545" y="122.6" style="stroke: #000000; stroke-width: 0.1"/>
      </g>
     </g>
    </g>
    <g id="xtick_14">
     <g id="line2d_27">
      <path d="M 231.5 122.6 
L 231.5 23.8 
" clip-path="url(#p537cb9b2cc)" style="fill: none; stroke: #b0b0b0; stroke-opacity: 0.2; stroke-width: 0.8; stroke-linecap: square"/>
     </g>
     <g id="line2d_28">
      <g>
       <use xlink:href="#mf7a22475a7" x="231.5" y="122.6" style="stroke: #000000; stroke-width: 0.1"/>
      </g>
     </g>
    </g>
    <g id="xtick_15">
     <g id="line2d_29">
      <path d="M 248.745455 122.6 
L 248.745455 23.8 
" clip-path="url(#p537cb9b2cc)" style="fill: none; stroke: #b0b0b0; stroke-opacity: 0.2; stroke-width: 0.8; stroke-linecap: square"/>
     </g>
     <g id="line2d_30">
      <g>
       <use xlink:href="#mf7a22475a7" x="248.745455" y="122.6" style="stroke: #000000; stroke-width: 0.1"/>
      </g>
     </g>
    </g>
    <g id="xtick_16">
     <g id="line2d_31">
      <path d="M 283.236364 122.6 
L 283.236364 23.8 
" clip-path="url(#p537cb9b2cc)" style="fill: none; stroke: #b0b0b0; stroke-opacity: 0.2; stroke-width: 0.8; stroke-linecap: square"/>
     </g>
     <g id="line2d_32">
      <g>
       <use xlink:href="#mf7a22475a7" x="283.236364" y="122.6" style="stroke: #000000; stroke-width: 0.1"/>
      </g>
     </g>
    </g>
    <g id="xtick_17">
     <g id="line2d_33">
      <path d="M 300.481818 122.6 
L 300.481818 23.8 
" clip-path="url(#p537cb9b2cc)" style="fill: none; stroke: #b0b0b0; stroke-opacity: 0.2; stroke-width: 0.8; stroke-linecap: square"/>
     </g>
     <g id="line2d_34">
      <g>
       <use xlink:href="#mf7a22475a7" x="300.481818" y="122.6" style="stroke: #000000; stroke-width: 0.1"/>
      </g>
     </g>
    </g>
    <g id="xtick_18">
     <g id="line2d_35">
      <path d="M 317.727273 122.6 
L 317.727273 23.8 
" clip-path="url(#p537cb9b2cc)" style="fill: none; stroke: #b0b0b0; stroke-opacity: 0.2; stroke-width: 0.8; stroke-linecap: square"/>
     </g>
     <g id="line2d_36">
      <g>
       <use xlink:href="#mf7a22475a7" x="317.727273" y="122.6" style="stroke: #000000; stroke-width: 0.1"/>
      </g>
     </g>
    </g>
    <g id="xtick_19">
     <g id="line2d_37">
      <path d="M 352.218182 122.6 
L 352.218182 23.8 
" clip-path="url(#p537cb9b2cc)" style="fill: none; stroke: #b0b0b0; stroke-opacity: 0.2; stroke-width: 0.8; stroke-linecap: square"/>
     </g>
     <g id="line2d_38">
      <g>
       <use xlink:href="#mf7a22475a7" x="352.218182" y="122.6" style="stroke: #000000; stroke-width: 0.1"/>
      </g>
     </g>
    </g>
    <g id="xtick_20">
     <g id="line2d_39">
      <path d="M 369.463636 122.6 
L 369.463636 23.8 
" clip-path="url(#p537cb9b2cc)" style="fill: none; stroke: #b0b0b0; stroke-opacity: 0.2; stroke-width: 0.8; stroke-linecap: square"/>
     </g>
     <g id="line2d_40">
      <g>
       <use xlink:href="#mf7a22475a7" x="369.463636" y="122.6" style="stroke: #000000; stroke-width: 0.1"/>
      </g>
     </g>
    </g>
    <g id="xtick_21">
     <g id="line2d_41">
      <path d="M 386.709091 122.6 
L 386.709091 23.8 
" clip-path="url(#p537cb9b2cc)" style="fill: none; stroke: #b0b0b0; stroke-opacity: 0.2; stroke-width: 0.8; stroke-linecap: square"/>
     </g>
     <g id="line2d_42">
      <g>
       <use xlink:href="#mf7a22475a7" x="386.709091" y="122.6" style="stroke: #000000; stroke-width: 0.1"/>
      </g>
     </g>
    </g>
    <g id="xtick_22">
     <g id="line2d_43">
      <path d="M 421.2 122.6 
L 421.2 23.8 
" clip-path="url(#p537cb9b2cc)" style="fill: none; stroke: #b0b0b0; stroke-opacity: 0.2; stroke-width: 0.8; stroke-linecap: square"/>
     </g>
     <g id="line2d_44">
      <g>
       <use xlink:href="#mf7a22475a7" x="421.2" y="122.6" style="stroke: #000000; stroke-width: 0.1"/>
      </g>
     </g>
    </g>
   </g>
   <g id="matplotlib.axis_2">
    <g id="ytick_1">
     <g id="line2d_45">
      <path d="M 41.8 118.112637 
L 421.2 118.112637 
" clip-path="url(#p537cb9b2cc)" style="fill: none; stroke: #b0b0b0; stroke-opacity: 0.2; stroke-width: 0.8; stroke-linecap: square"/>
     </g>
     <g id="line2d_46">
      <defs>
       <path id="m6334ee9ef8" d="M 0 0 
L -3.5 0 
" style="stroke: #000000; stroke-width: 0.8"/>
      </defs>
      <g>
       <use xlink:href="#m6334ee9ef8" x="41.8" y="118.112637" style="stroke: #000000; stroke-width: 0.8"/>
      </g>
     </g>
     <g id="text_7">
      <!-- 0 -->
      <g transform="translate(29.2625 121.606387)scale(0.1 -0.1)">
       <use xlink:href="#Cambria-30"/>
      </g>
     </g>
    </g>
    <g id="ytick_2">
     <g id="line2d_47">
      <path d="M 41.8 79.721489 
L 421.2 79.721489 
" clip-path="url(#p537cb9b2cc)" style="fill: none; stroke: #b0b0b0; stroke-opacity: 0.2; stroke-width: 0.8; stroke-linecap: square"/>
     </g>
     <g id="line2d_48">
      <g>
       <use xlink:href="#m6334ee9ef8" x="41.8" y="79.721489" style="stroke: #000000; stroke-width: 0.8"/>
      </g>
     </g>
     <g id="text_8">
      <!-- 1 -->
      <g transform="translate(29.2625 83.215239)scale(0.1 -0.1)">
       <use xlink:href="#Cambria-31"/>
      </g>
     </g>
    </g>
    <g id="ytick_3">
     <g id="line2d_49">
      <path d="M 41.8 41.330342 
L 421.2 41.330342 
" clip-path="url(#p537cb9b2cc)" style="fill: none; stroke: #b0b0b0; stroke-opacity: 0.2; stroke-width: 0.8; stroke-linecap: square"/>
     </g>
     <g id="line2d_50">
      <g>
       <use xlink:href="#m6334ee9ef8" x="41.8" y="41.330342" style="stroke: #000000; stroke-width: 0.8"/>
      </g>
     </g>
     <g id="text_9">
      <!-- 2 -->
      <g transform="translate(29.2625 44.824092)scale(0.1 -0.1)">
       <use xlink:href="#Cambria-32"/>
      </g>
     </g>
    </g>
    <g id="ytick_4">
     <g id="line2d_51">
      <path d="M 41.8 110.434407 
L 421.2 110.434407 
" clip-path="url(#p537cb9b2cc)" style="fill: none; stroke: #b0b0b0; stroke-opacity: 0.2; stroke-width: 0.8; stroke-linecap: square"/>
     </g>
     <g id="line2d_52">
      <defs>
       <path id="mcad79be64e" d="M 0 0 
L -2 0 
" style="stroke: #000000; stroke-width: 0.1"/>
      </defs>
      <g>
       <use xlink:href="#mcad79be64e" x="41.8" y="110.434407" style="stroke: #000000; stroke-width: 0.1"/>
      </g>
     </g>
    </g>
    <g id="ytick_5">
     <g id="line2d_53">
      <path d="M 41.8 102.756178 
L 421.2 102.756178 
" clip-path="url(#p537cb9b2cc)" style="fill: none; stroke: #b0b0b0; stroke-opacity: 0.2; stroke-width: 0.8; stroke-linecap: square"/>
     </g>
     <g id="line2d_54">
      <g>
       <use xlink:href="#mcad79be64e" x="41.8" y="102.756178" style="stroke: #000000; stroke-width: 0.1"/>
      </g>
     </g>
    </g>
    <g id="ytick_6">
     <g id="line2d_55">
      <path d="M 41.8 95.077948 
L 421.2 95.077948 
" clip-path="url(#p537cb9b2cc)" style="fill: none; stroke: #b0b0b0; stroke-opacity: 0.2; stroke-width: 0.8; stroke-linecap: square"/>
     </g>
     <g id="line2d_56">
      <g>
       <use xlink:href="#mcad79be64e" x="41.8" y="95.077948" style="stroke: #000000; stroke-width: 0.1"/>
      </g>
     </g>
    </g>
    <g id="ytick_7">
     <g id="line2d_57">
      <path d="M 41.8 87.399719 
L 421.2 87.399719 
" clip-path="url(#p537cb9b2cc)" style="fill: none; stroke: #b0b0b0; stroke-opacity: 0.2; stroke-width: 0.8; stroke-linecap: square"/>
     </g>
     <g id="line2d_58">
      <g>
       <use xlink:href="#mcad79be64e" x="41.8" y="87.399719" style="stroke: #000000; stroke-width: 0.1"/>
      </g>
     </g>
    </g>
    <g id="ytick_8">
     <g id="line2d_59">
      <path d="M 41.8 72.04326 
L 421.2 72.04326 
" clip-path="url(#p537cb9b2cc)" style="fill: none; stroke: #b0b0b0; stroke-opacity: 0.2; stroke-width: 0.8; stroke-linecap: square"/>
     </g>
     <g id="line2d_60">
      <g>
       <use xlink:href="#mcad79be64e" x="41.8" y="72.04326" style="stroke: #000000; stroke-width: 0.1"/>
      </g>
     </g>
    </g>
    <g id="ytick_9">
     <g id="line2d_61">
      <path d="M 41.8 64.36503 
L 421.2 64.36503 
" clip-path="url(#p537cb9b2cc)" style="fill: none; stroke: #b0b0b0; stroke-opacity: 0.2; stroke-width: 0.8; stroke-linecap: square"/>
     </g>
     <g id="line2d_62">
      <g>
       <use xlink:href="#mcad79be64e" x="41.8" y="64.36503" style="stroke: #000000; stroke-width: 0.1"/>
      </g>
     </g>
    </g>
    <g id="ytick_10">
     <g id="line2d_63">
      <path d="M 41.8 56.686801 
L 421.2 56.686801 
" clip-path="url(#p537cb9b2cc)" style="fill: none; stroke: #b0b0b0; stroke-opacity: 0.2; stroke-width: 0.8; stroke-linecap: square"/>
     </g>
     <g id="line2d_64">
      <g>
       <use xlink:href="#mcad79be64e" x="41.8" y="56.686801" style="stroke: #000000; stroke-width: 0.1"/>
      </g>
     </g>
    </g>
    <g id="ytick_11">
     <g id="line2d_65">
      <path d="M 41.8 49.008571 
L 421.2 49.008571 
" clip-path="url(#p537cb9b2cc)" style="fill: none; stroke: #b0b0b0; stroke-opacity: 0.2; stroke-width: 0.8; stroke-linecap: square"/>
     </g>
     <g id="line2d_66">
      <g>
       <use xlink:href="#mcad79be64e" x="41.8" y="49.008571" style="stroke: #000000; stroke-width: 0.1"/>
      </g>
     </g>
    </g>
    <g id="ytick_12">
     <g id="line2d_67">
      <path d="M 41.8 33.652112 
L 421.2 33.652112 
" clip-path="url(#p537cb9b2cc)" style="fill: none; stroke: #b0b0b0; stroke-opacity: 0.2; stroke-width: 0.8; stroke-linecap: square"/>
     </g>
     <g id="line2d_68">
      <g>
       <use xlink:href="#mcad79be64e" x="41.8" y="33.652112" style="stroke: #000000; stroke-width: 0.1"/>
      </g>
     </g>
    </g>
    <g id="ytick_13">
     <g id="line2d_69">
      <path d="M 41.8 25.973882 
L 421.2 25.973882 
" clip-path="url(#p537cb9b2cc)" style="fill: none; stroke: #b0b0b0; stroke-opacity: 0.2; stroke-width: 0.8; stroke-linecap: square"/>
     </g>
     <g id="line2d_70">
      <g>
       <use xlink:href="#mcad79be64e" x="41.8" y="25.973882" style="stroke: #000000; stroke-width: 0.1"/>
      </g>
     </g>
    </g>
   </g>
   <g id="line2d_71">
    <path d="M 59.045455 28.290909 
L 61.632273 34.780776 
L 64.219091 40.801734 
L 66.805909 46.387661 
L 69.392727 51.569991 
L 71.979545 56.377885 
L 75.428636 62.252429 
L 78.877727 67.567966 
L 82.326818 72.37769 
L 85.775909 76.729734 
L 89.225 80.667649 
L 92.674091 84.230842 
L 96.123182 87.454972 
L 99.572273 90.372301 
L 103.021364 93.012025 
L 106.470455 95.40056 
L 109.919545 97.561808 
L 114.230909 99.976496 
L 118.542273 102.107466 
L 122.853636 103.988053 
L 127.165 105.647677 
L 132.338636 107.383889 
L 137.512273 108.878272 
L 143.548182 110.360744 
L 149.584091 111.605225 
L 156.482273 112.784793 
L 164.242727 113.858248 
L 172.865455 114.799302 
L 182.350455 115.595911 
L 193.56 116.294228 
L 206.494091 116.862861 
L 222.015 117.315743 
L 241.847273 117.664221 
L 269.44 117.91115 
L 313.415909 118.056335 
L 403.954545 118.108558 
L 403.954545 118.108558 
" clip-path="url(#p537cb9b2cc)" style="fill: none; stroke: #0000ff; stroke-linecap: square"/>
   </g>
   <g id="line2d_72">
    <path d="M 59.045455 28.290909 
L 61.632273 34.755295 
L 64.219091 40.754528 
L 66.805909 46.322082 
L 69.392727 51.489023 
L 72.841818 57.804632 
L 76.290909 63.521725 
L 79.74 68.697028 
L 83.189091 73.381891 
L 86.638182 77.622796 
L 90.087273 81.461817 
L 93.536364 84.93704 
L 96.985455 88.08294 
L 100.434545 90.930722 
L 103.883636 93.508636 
L 107.332727 95.842252 
L 111.644091 98.450776 
L 115.955455 100.754033 
L 120.266818 102.787733 
L 124.578182 104.583407 
L 129.751818 106.46299 
L 134.925455 108.081729 
L 140.099091 109.475791 
L 146.135 110.859549 
L 152.170909 112.021854 
L 159.069091 113.124178 
L 166.829545 114.127941 
L 175.452273 115.008416 
L 184.937273 115.754153 
L 196.146818 116.408197 
L 209.943182 116.969922 
L 226.326364 117.401923 
L 247.883182 117.732198 
L 278.062727 117.954043 
L 328.936818 118.076359 
L 403.954545 118.109091 
L 403.954545 118.109091 
" clip-path="url(#p537cb9b2cc)" style="fill: none; stroke: #008000; stroke-linecap: square"/>
   </g>
   <g id="patch_3">
    <path d="M 41.8 122.6 
L 41.8 23.8 
" style="fill: none; stroke: #000000; stroke-width: 0.8; stroke-linejoin: miter; stroke-linecap: square"/>
   </g>
   <g id="patch_4">
    <path d="M 421.2 122.6 
L 421.2 23.8 
" style="fill: none; stroke: #000000; stroke-width: 0.8; stroke-linejoin: miter; stroke-linecap: square"/>
   </g>
   <g id="patch_5">
    <path d="M 41.8 122.6 
L 421.2 122.6 
" style="fill: none; stroke: #000000; stroke-width: 0.8; stroke-linejoin: miter; stroke-linecap: square"/>
   </g>
   <g id="patch_6">
    <path d="M 41.8 23.8 
L 421.2 23.8 
" style="fill: none; stroke: #000000; stroke-width: 0.8; stroke-linejoin: miter; stroke-linecap: square"/>
   </g>
   <g id="text_10">
    <!-- Solution of the last timestep -->
    <g transform="translate(171.879687 17.8)scale(0.1 -0.1)">
     <defs>
      <path id="Cambria-53" d="M 663 972 
Q 725 697 831 537 
Q 938 378 1106 301 
Q 1275 225 1541 225 
Q 1906 225 2101 415 
Q 2297 606 2297 972 
Q 2297 1206 2215 1365 
Q 2134 1525 1950 1665 
Q 1766 1806 1388 1994 
Q 1022 2175 809 2348 
Q 597 2522 492 2725 
Q 388 2928 388 3169 
Q 388 3519 552 3776 
Q 716 4034 1033 4175 
Q 1350 4316 1759 4316 
Q 1997 4316 2223 4291 
Q 2450 4266 2791 4178 
L 2791 3334 
L 2481 3334 
Q 2409 3609 2300 3762 
Q 2191 3916 2044 3977 
Q 1897 4038 1663 4038 
Q 1459 4038 1298 3963 
Q 1138 3888 1044 3736 
Q 950 3584 950 3375 
Q 950 3153 1029 3000 
Q 1109 2847 1278 2715 
Q 1447 2584 1778 2422 
Q 2178 2222 2398 2050 
Q 2619 1878 2742 1658 
Q 2866 1438 2866 1144 
Q 2866 816 2762 589 
Q 2659 363 2476 220 
Q 2294 78 2039 14 
Q 1784 -50 1481 -50 
Q 991 -50 350 116 
L 350 972 
L 663 972 
z
" transform="scale(0.015625)"/>
      <path id="Cambria-6f" d="M 1663 -50 
Q 1013 -50 670 333 
Q 328 716 328 1466 
Q 328 1981 508 2337 
Q 688 2694 1000 2867 
Q 1313 3041 1713 3041 
Q 2381 3041 2725 2652 
Q 3069 2263 3069 1534 
Q 3069 1016 2897 659 
Q 2725 303 2409 126 
Q 2094 -50 1663 -50 
z
M 919 1531 
Q 919 888 1123 542 
Q 1328 197 1709 197 
Q 1919 197 2066 298 
Q 2213 400 2305 572 
Q 2397 744 2437 970 
Q 2478 1197 2478 1444 
Q 2478 1903 2376 2206 
Q 2275 2509 2100 2651 
Q 1925 2794 1700 2794 
Q 1322 2794 1120 2466 
Q 919 2138 919 1531 
z
" transform="scale(0.015625)"/>
      <path id="Cambria-6c" d="M 1138 781 
Q 1138 513 1163 408 
Q 1188 303 1258 248 
Q 1328 194 1488 153 
L 1488 0 
L 247 0 
L 247 153 
Q 403 194 464 237 
Q 525 281 551 342 
Q 578 403 589 508 
Q 600 613 600 781 
L 600 3397 
Q 600 3697 595 3815 
Q 591 3934 570 4017 
Q 550 4100 514 4147 
Q 478 4194 417 4222 
Q 356 4250 197 4278 
L 197 4441 
L 950 4472 
L 1138 4472 
L 1138 781 
z
" transform="scale(0.015625)"/>
      <path id="Cambria-75" d="M 228 2988 
L 1119 2988 
L 1119 1397 
Q 1119 1031 1147 840 
Q 1175 650 1231 553 
Q 1288 456 1391 390 
Q 1494 325 1675 325 
Q 1794 325 1903 372 
Q 2013 419 2147 536 
Q 2281 653 2339 768 
Q 2397 884 2397 1038 
L 2397 2209 
Q 2397 2388 2387 2478 
Q 2378 2569 2356 2623 
Q 2334 2678 2304 2712 
Q 2275 2747 2220 2775 
Q 2166 2803 2044 2834 
L 2044 2988 
L 2934 2988 
L 2934 853 
Q 2934 613 2943 506 
Q 2953 400 2984 337 
Q 3016 275 3081 236 
Q 3147 197 3316 163 
L 3316 0 
L 2600 -31 
L 2409 -31 
L 2428 481 
L 2381 494 
Q 2122 213 1886 81 
Q 1650 -50 1413 -50 
Q 1128 -50 943 62 
Q 759 175 668 398 
Q 578 622 578 1028 
L 578 2209 
Q 578 2472 558 2570 
Q 538 2669 480 2726 
Q 422 2784 228 2834 
L 228 2988 
z
" transform="scale(0.015625)"/>
      <path id="Cambria-74" d="M 116 2831 
Q 272 2856 369 2918 
Q 466 2981 520 3079 
Q 575 3178 606 3326 
Q 638 3475 672 3759 
L 1116 3759 
L 1116 2988 
L 2125 2988 
L 2125 2672 
L 1116 2672 
L 1116 1281 
Q 1116 978 1141 798 
Q 1166 619 1234 517 
Q 1303 416 1390 372 
Q 1478 328 1616 328 
Q 1741 328 1850 379 
Q 1959 431 2066 528 
L 2206 359 
Q 1984 144 1786 47 
Q 1588 -50 1375 -50 
Q 972 -50 775 189 
Q 578 428 578 938 
L 578 2672 
L 116 2672 
L 116 2831 
z
" transform="scale(0.015625)"/>
      <path id="Cambria-69" d="M 1197 4213 
L 1197 3606 
L 622 3606 
L 622 4213 
L 1197 4213 
z
M 303 153 
Q 425 191 476 219 
Q 528 247 564 297 
Q 600 347 620 450 
Q 641 553 641 772 
L 641 2134 
Q 641 2334 634 2456 
Q 628 2578 590 2651 
Q 553 2725 476 2761 
Q 400 2797 259 2822 
L 259 2988 
L 988 3016 
L 1178 3016 
L 1178 781 
Q 1178 513 1203 408 
Q 1228 303 1298 248 
Q 1369 194 1528 153 
L 1528 0 
L 303 0 
L 303 153 
z
" transform="scale(0.015625)"/>
      <path id="Cambria-6e" d="M 3347 0 
L 2116 0 
L 2116 153 
Q 2238 191 2291 219 
Q 2344 247 2380 297 
Q 2416 347 2436 451 
Q 2456 556 2456 769 
L 2456 1588 
Q 2456 1806 2443 1984 
Q 2431 2163 2401 2277 
Q 2372 2391 2330 2455 
Q 2288 2519 2230 2564 
Q 2172 2609 2097 2636 
Q 2022 2663 1900 2663 
Q 1778 2663 1668 2614 
Q 1559 2566 1428 2447 
Q 1297 2328 1237 2212 
Q 1178 2097 1178 1947 
L 1178 781 
Q 1178 513 1203 408 
Q 1228 303 1298 248 
Q 1369 194 1528 153 
L 1528 0 
L 303 0 
L 303 153 
Q 425 191 476 219 
Q 528 247 564 297 
Q 600 347 620 450 
Q 641 553 641 772 
L 641 2134 
Q 641 2334 634 2456 
Q 628 2578 590 2651 
Q 553 2725 476 2761 
Q 400 2797 259 2822 
L 259 2988 
L 991 3016 
L 1181 3016 
L 1147 2506 
L 1191 2494 
Q 1422 2728 1564 2828 
Q 1706 2928 1851 2983 
Q 1997 3038 2159 3038 
Q 2328 3038 2461 2998 
Q 2594 2959 2695 2878 
Q 2797 2797 2862 2676 
Q 2928 2556 2961 2387 
Q 2994 2219 2994 1959 
L 2994 781 
Q 2994 566 3006 469 
Q 3019 372 3050 319 
Q 3081 266 3140 230 
Q 3200 194 3347 153 
L 3347 0 
z
" transform="scale(0.015625)"/>
      <path id="Cambria-20" transform="scale(0.015625)"/>
      <path id="Cambria-66" d="M 1909 2672 
L 1163 2672 
L 1163 781 
Q 1163 572 1183 465 
Q 1203 359 1242 304 
Q 1281 250 1345 217 
Q 1409 184 1550 153 
L 1550 0 
L 272 0 
L 272 153 
Q 409 191 468 225 
Q 528 259 561 312 
Q 594 366 609 466 
Q 625 566 625 781 
L 625 2672 
L 247 2672 
L 247 2831 
Q 366 2850 405 2861 
Q 444 2872 480 2894 
Q 516 2916 542 2956 
Q 569 2997 589 3076 
Q 609 3156 622 3300 
Q 650 3641 745 3853 
Q 841 4066 1023 4216 
Q 1206 4366 1414 4427 
Q 1622 4488 1903 4488 
Q 2150 4488 2322 4453 
L 2322 3888 
L 2013 3888 
Q 1953 4072 1873 4148 
Q 1794 4225 1650 4225 
Q 1547 4225 1476 4197 
Q 1406 4169 1347 4109 
Q 1288 4050 1245 3950 
Q 1203 3850 1183 3701 
Q 1163 3553 1163 3316 
L 1163 2988 
L 1909 2988 
L 1909 2672 
z
" transform="scale(0.015625)"/>
      <path id="Cambria-68" d="M 1141 2497 
L 1153 2494 
Q 1397 2741 1539 2839 
Q 1681 2938 1820 2988 
Q 1959 3038 2119 3038 
Q 2291 3038 2425 2997 
Q 2559 2956 2661 2873 
Q 2763 2791 2827 2670 
Q 2891 2550 2922 2383 
Q 2953 2216 2953 1959 
L 2953 781 
Q 2953 509 2976 411 
Q 3000 313 3061 258 
Q 3122 203 3306 153 
L 3306 0 
L 2075 0 
L 2075 153 
Q 2197 191 2250 219 
Q 2303 247 2339 297 
Q 2375 347 2395 451 
Q 2416 556 2416 769 
L 2416 1588 
Q 2416 2003 2373 2223 
Q 2331 2444 2207 2553 
Q 2084 2663 1863 2663 
Q 1738 2663 1638 2619 
Q 1538 2575 1406 2462 
Q 1275 2350 1208 2231 
Q 1141 2113 1141 1978 
L 1141 781 
Q 1141 569 1152 478 
Q 1163 388 1194 327 
Q 1225 266 1289 227 
Q 1353 188 1488 153 
L 1488 0 
L 250 0 
L 250 153 
Q 388 191 447 225 
Q 506 259 539 312 
Q 572 366 587 466 
Q 603 566 603 781 
L 603 3397 
Q 603 3697 598 3815 
Q 594 3934 573 4017 
Q 553 4100 517 4147 
Q 481 4194 420 4222 
Q 359 4250 200 4278 
L 200 4441 
L 953 4472 
L 1141 4472 
L 1141 2497 
z
" transform="scale(0.015625)"/>
      <path id="Cambria-65" d="M 2800 531 
Q 2600 322 2433 203 
Q 2266 84 2066 17 
Q 1866 -50 1625 -50 
Q 981 -50 653 336 
Q 325 722 325 1475 
Q 325 1941 492 2297 
Q 659 2653 968 2847 
Q 1278 3041 1681 3041 
Q 1997 3041 2219 2941 
Q 2441 2841 2573 2667 
Q 2706 2494 2779 2230 
Q 2853 1966 2863 1541 
L 894 1541 
L 894 1484 
Q 894 1116 976 864 
Q 1059 613 1248 470 
Q 1438 328 1741 328 
Q 1997 328 2201 423 
Q 2406 519 2609 734 
L 2800 531 
z
M 2275 1800 
Q 2256 2138 2190 2352 
Q 2125 2566 1994 2680 
Q 1863 2794 1650 2794 
Q 1328 2794 1136 2536 
Q 944 2278 909 1800 
L 2275 1800 
z
" transform="scale(0.015625)"/>
      <path id="Cambria-61" d="M 2109 447 
L 2063 459 
Q 1791 181 1552 65 
Q 1313 -50 1044 -50 
Q 806 -50 625 42 
Q 444 134 347 301 
Q 250 469 250 688 
Q 250 1144 701 1392 
Q 1153 1641 2056 1681 
L 2056 1884 
Q 2056 2209 1993 2396 
Q 1931 2584 1797 2671 
Q 1663 2759 1438 2759 
Q 1194 2759 1045 2631 
Q 897 2503 822 2247 
L 413 2247 
L 413 2653 
Q 713 2809 913 2882 
Q 1113 2956 1313 2998 
Q 1513 3041 1719 3041 
Q 2028 3041 2215 2942 
Q 2403 2844 2497 2641 
Q 2591 2438 2591 2028 
L 2591 941 
Q 2591 709 2594 614 
Q 2597 519 2612 437 
Q 2628 356 2659 307 
Q 2691 259 2752 225 
Q 2813 191 2950 153 
L 2950 0 
L 2094 0 
L 2109 447 
z
M 2056 1425 
Q 1422 1419 1106 1256 
Q 791 1094 791 766 
Q 791 588 862 484 
Q 934 381 1043 342 
Q 1153 303 1303 303 
Q 1516 303 1689 406 
Q 1863 509 1959 668 
Q 2056 828 2056 984 
L 2056 1425 
z
" transform="scale(0.015625)"/>
      <path id="Cambria-73" d="M 2397 2303 
L 2097 2303 
Q 2028 2491 1934 2598 
Q 1841 2706 1722 2750 
Q 1603 2794 1431 2794 
Q 1181 2794 1032 2676 
Q 884 2559 884 2356 
Q 884 2213 943 2119 
Q 1003 2025 1128 1944 
Q 1253 1863 1569 1728 
Q 1888 1591 2061 1475 
Q 2234 1359 2332 1206 
Q 2431 1053 2431 841 
Q 2431 594 2347 425 
Q 2263 256 2109 150 
Q 1956 44 1745 -3 
Q 1534 -50 1284 -50 
Q 1022 -50 775 -11 
Q 528 28 294 91 
L 294 744 
L 600 744 
Q 684 456 850 326 
Q 1016 197 1306 197 
Q 1419 197 1526 220 
Q 1634 244 1718 298 
Q 1803 353 1853 447 
Q 1903 541 1903 681 
Q 1903 841 1840 941 
Q 1778 1041 1647 1123 
Q 1516 1206 1184 1347 
Q 900 1466 728 1578 
Q 556 1691 457 1844 
Q 359 1997 359 2206 
Q 359 2463 498 2652 
Q 638 2841 900 2941 
Q 1163 3041 1516 3041 
Q 1722 3041 1914 3020 
Q 2106 3000 2397 2941 
L 2397 2303 
z
" transform="scale(0.015625)"/>
      <path id="Cambria-6d" d="M 1147 2506 
L 1191 2494 
Q 1378 2681 1498 2776 
Q 1619 2872 1731 2930 
Q 1844 2988 1942 3013 
Q 2041 3038 2144 3038 
Q 2456 3038 2653 2894 
Q 2850 2750 2925 2453 
Q 3159 2691 3304 2803 
Q 3450 2916 3601 2977 
Q 3753 3038 3928 3038 
Q 4138 3038 4289 2977 
Q 4441 2916 4545 2789 
Q 4650 2663 4698 2472 
Q 4747 2281 4747 1959 
L 4747 781 
Q 4747 544 4762 453 
Q 4778 363 4808 313 
Q 4838 263 4897 227 
Q 4956 191 5097 153 
L 5097 0 
L 3869 0 
L 3869 153 
Q 3991 191 4044 219 
Q 4097 247 4133 297 
Q 4169 347 4189 451 
Q 4209 556 4209 769 
L 4209 1588 
Q 4209 1853 4195 2026 
Q 4181 2200 4151 2303 
Q 4122 2406 4080 2465 
Q 4038 2525 3984 2569 
Q 3931 2613 3859 2638 
Q 3788 2663 3669 2663 
Q 3544 2663 3436 2613 
Q 3328 2563 3201 2444 
Q 3075 2325 3019 2204 
Q 2963 2084 2963 1922 
L 2963 781 
Q 2963 544 2978 453 
Q 2994 363 3023 313 
Q 3053 263 3112 227 
Q 3172 191 3313 153 
L 3313 0 
L 2084 0 
L 2084 153 
Q 2206 191 2259 219 
Q 2313 247 2348 297 
Q 2384 347 2404 451 
Q 2425 556 2425 769 
L 2425 1588 
Q 2425 1866 2409 2041 
Q 2394 2216 2361 2322 
Q 2328 2428 2276 2493 
Q 2225 2559 2172 2593 
Q 2119 2628 2047 2645 
Q 1975 2663 1884 2663 
Q 1756 2663 1643 2605 
Q 1531 2547 1414 2437 
Q 1297 2328 1237 2209 
Q 1178 2091 1178 1953 
L 1178 781 
Q 1178 603 1187 509 
Q 1197 416 1217 362 
Q 1238 309 1269 276 
Q 1300 244 1358 214 
Q 1416 184 1531 153 
L 1531 0 
L 306 0 
L 306 153 
Q 425 191 476 219 
Q 528 247 565 297 
Q 603 347 622 450 
Q 641 553 641 772 
L 641 2134 
Q 641 2334 634 2456 
Q 628 2578 590 2651 
Q 553 2725 476 2761 
Q 400 2797 259 2822 
L 259 2988 
L 991 3016 
L 1181 3016 
L 1147 2506 
z
" transform="scale(0.015625)"/>
      <path id="Cambria-70" d="M 1150 94 
L 1150 -566 
Q 1150 -769 1164 -869 
Q 1178 -969 1214 -1026 
Q 1250 -1084 1317 -1121 
Q 1384 -1159 1534 -1191 
L 1534 -1344 
L 259 -1344 
L 259 -1191 
Q 372 -1159 442 -1126 
Q 513 -1094 550 -1030 
Q 588 -966 600 -856 
Q 613 -747 613 -566 
L 613 2116 
Q 613 2341 606 2436 
Q 600 2531 581 2593 
Q 563 2656 527 2697 
Q 491 2738 430 2766 
Q 369 2794 228 2822 
L 228 2988 
L 963 3016 
L 1153 3016 
L 1113 2506 
L 1159 2494 
Q 1353 2691 1465 2780 
Q 1578 2869 1698 2928 
Q 1819 2988 1930 3013 
Q 2041 3038 2166 3038 
Q 2681 3038 2957 2652 
Q 3234 2266 3234 1522 
Q 3234 1006 3078 654 
Q 2922 303 2623 126 
Q 2325 -50 1913 -50 
Q 1681 -50 1493 -11 
Q 1306 28 1150 94 
z
M 1150 1125 
Q 1150 825 1187 662 
Q 1225 500 1320 398 
Q 1416 297 1545 247 
Q 1675 197 1888 197 
Q 2266 197 2456 511 
Q 2647 825 2647 1438 
Q 2647 2663 1931 2663 
Q 1756 2663 1629 2608 
Q 1503 2553 1378 2431 
Q 1253 2309 1201 2195 
Q 1150 2081 1150 1950 
L 1150 1125 
z
" transform="scale(0.015625)"/>
     </defs>
     <use xlink:href="#Cambria-53"/>
     <use xlink:href="#Cambria-6f" x="49.609375"/>
     <use xlink:href="#Cambria-6c" x="102.685547"/>
     <use xlink:href="#Cambria-75" x="129.833984"/>
     <use xlink:href="#Cambria-74" x="185.058594"/>
     <use xlink:href="#Cambria-69" x="218.896484"/>
     <use xlink:href="#Cambria-6f" x="246.679688"/>
     <use xlink:href="#Cambria-6e" x="299.755859"/>
     <use xlink:href="#Cambria-20" x="355.566406"/>
     <use xlink:href="#Cambria-6f" x="377.587891"/>
     <use xlink:href="#Cambria-66" x="430.664062"/>
     <use xlink:href="#Cambria-20" x="460.9375"/>
     <use xlink:href="#Cambria-74" x="482.958984"/>
     <use xlink:href="#Cambria-68" x="516.796875"/>
     <use xlink:href="#Cambria-65" x="571.972656"/>
     <use xlink:href="#Cambria-20" x="620.751953"/>
     <use xlink:href="#Cambria-6c" x="642.773438"/>
     <use xlink:href="#Cambria-61" x="669.921875"/>
     <use xlink:href="#Cambria-73" x="718.75"/>
     <use xlink:href="#Cambria-74" x="761.71875"/>
     <use xlink:href="#Cambria-20" x="795.556641"/>
     <use xlink:href="#Cambria-74" x="817.578125"/>
     <use xlink:href="#Cambria-69" x="851.416016"/>
     <use xlink:href="#Cambria-6d" x="879.199219"/>
     <use xlink:href="#Cambria-65" x="962.402344"/>
     <use xlink:href="#Cambria-73" x="1011.181641"/>
     <use xlink:href="#Cambria-74" x="1054.150391"/>
     <use xlink:href="#Cambria-65" x="1087.988281"/>
     <use xlink:href="#Cambria-70" x="1136.767578"/>
    </g>
   </g>
   <g id="legend_1">
    <g id="patch_7">
     <path d="M 354.778125 60 
L 414.2 60 
Q 416.2 60 416.2 58 
L 416.2 30.8 
Q 416.2 28.8 414.2 28.8 
L 354.778125 28.8 
Q 352.778125 28.8 352.778125 30.8 
L 352.778125 58 
Q 352.778125 60 354.778125 60 
z
" style="fill: #ffffff; opacity: 0.8; stroke: #cccccc; stroke-linejoin: miter"/>
    </g>
    <g id="line2d_73">
     <path d="M 356.778125 36.3 
L 366.778125 36.3 
L 376.778125 36.3 
" style="fill: none; stroke: #0000ff; stroke-linecap: square"/>
    </g>
    <g id="text_11">
     <!-- Case 1 -->
     <g transform="translate(384.778125 39.8)scale(0.1 -0.1)">
      <defs>
       <path id="Cambria-43" d="M 3256 4175 
L 3256 3309 
L 2947 3309 
Q 2872 3581 2756 3742 
Q 2641 3903 2487 3972 
Q 2334 4041 2119 4041 
Q 1797 4041 1545 3827 
Q 1294 3613 1150 3183 
Q 1006 2753 1006 2144 
Q 1006 1531 1125 1098 
Q 1244 666 1475 445 
Q 1706 225 2044 225 
Q 2300 225 2462 298 
Q 2625 372 2736 531 
Q 2847 691 2947 1000 
L 3256 1000 
L 3256 106 
Q 2963 28 2655 -11 
Q 2347 -50 1978 -50 
Q 1184 -50 778 487 
Q 372 1025 372 2091 
Q 372 2759 583 3262 
Q 794 3766 1203 4041 
Q 1613 4316 2181 4316 
Q 2466 4316 2706 4286 
Q 2947 4256 3256 4175 
z
" transform="scale(0.015625)"/>
      </defs>
      <use xlink:href="#Cambria-43"/>
      <use xlink:href="#Cambria-61" x="56.25"/>
      <use xlink:href="#Cambria-73" x="105.078125"/>
      <use xlink:href="#Cambria-65" x="148.046875"/>
      <use xlink:href="#Cambria-20" x="196.826172"/>
      <use xlink:href="#Cambria-31" x="218.847656"/>
     </g>
    </g>
    <g id="line2d_74">
     <path d="M 356.778125 50.4 
L 366.778125 50.4 
L 376.778125 50.4 
" style="fill: none; stroke: #008000; stroke-linecap: square"/>
    </g>
    <g id="text_12">
     <!-- Case 2 -->
     <g transform="translate(384.778125 53.9)scale(0.1 -0.1)">
      <use xlink:href="#Cambria-43"/>
      <use xlink:href="#Cambria-61" x="56.25"/>
      <use xlink:href="#Cambria-73" x="105.078125"/>
      <use xlink:href="#Cambria-65" x="148.046875"/>
      <use xlink:href="#Cambria-20" x="196.826172"/>
      <use xlink:href="#Cambria-32" x="218.847656"/>
     </g>
    </g>
   </g>
  </g>
  <g id="axes_2">
   <g id="patch_8">
    <path d="M 41.8 261.2 
L 421.2 261.2 
L 421.2 162.4 
L 41.8 162.4 
z
" style="fill: #ffffff"/>
   </g>
   <g id="matplotlib.axis_3">
    <g id="xtick_23">
     <g id="line2d_75">
      <path d="M 59.045455 261.2 
L 59.045455 162.4 
" clip-path="url(#p61b5b0abf0)" style="fill: none; stroke: #b0b0b0; stroke-opacity: 0.2; stroke-width: 0.8; stroke-linecap: square"/>
     </g>
     <g id="line2d_76">
      <g>
       <use xlink:href="#me409065734" x="59.045455" y="261.2" style="stroke: #000000; stroke-width: 0.8"/>
      </g>
     </g>
     <g id="text_13">
      <!-- 0 -->
      <g transform="translate(56.276705 275.1875)scale(0.1 -0.1)">
       <use xlink:href="#Cambria-30"/>
      </g>
     </g>
    </g>
    <g id="xtick_24">
     <g id="line2d_77">
      <path d="M 128.027273 261.2 
L 128.027273 162.4 
" clip-path="url(#p61b5b0abf0)" style="fill: none; stroke: #b0b0b0; stroke-opacity: 0.2; stroke-width: 0.8; stroke-linecap: square"/>
     </g>
     <g id="line2d_78">
      <g>
       <use xlink:href="#me409065734" x="128.027273" y="261.2" style="stroke: #000000; stroke-width: 0.8"/>
      </g>
     </g>
     <g id="text_14">
      <!-- 2 -->
      <g transform="translate(125.258523 275.1875)scale(0.1 -0.1)">
       <use xlink:href="#Cambria-32"/>
      </g>
     </g>
    </g>
    <g id="xtick_25">
     <g id="line2d_79">
      <path d="M 197.009091 261.2 
L 197.009091 162.4 
" clip-path="url(#p61b5b0abf0)" style="fill: none; stroke: #b0b0b0; stroke-opacity: 0.2; stroke-width: 0.8; stroke-linecap: square"/>
     </g>
     <g id="line2d_80">
      <g>
       <use xlink:href="#me409065734" x="197.009091" y="261.2" style="stroke: #000000; stroke-width: 0.8"/>
      </g>
     </g>
     <g id="text_15">
      <!-- 4 -->
      <g transform="translate(194.240341 275.1875)scale(0.1 -0.1)">
       <use xlink:href="#Cambria-34"/>
      </g>
     </g>
    </g>
    <g id="xtick_26">
     <g id="line2d_81">
      <path d="M 265.990909 261.2 
L 265.990909 162.4 
" clip-path="url(#p61b5b0abf0)" style="fill: none; stroke: #b0b0b0; stroke-opacity: 0.2; stroke-width: 0.8; stroke-linecap: square"/>
     </g>
     <g id="line2d_82">
      <g>
       <use xlink:href="#me409065734" x="265.990909" y="261.2" style="stroke: #000000; stroke-width: 0.8"/>
      </g>
     </g>
     <g id="text_16">
      <!-- 6 -->
      <g transform="translate(263.222159 275.1875)scale(0.1 -0.1)">
       <use xlink:href="#Cambria-36"/>
      </g>
     </g>
    </g>
    <g id="xtick_27">
     <g id="line2d_83">
      <path d="M 334.972727 261.2 
L 334.972727 162.4 
" clip-path="url(#p61b5b0abf0)" style="fill: none; stroke: #b0b0b0; stroke-opacity: 0.2; stroke-width: 0.8; stroke-linecap: square"/>
     </g>
     <g id="line2d_84">
      <g>
       <use xlink:href="#me409065734" x="334.972727" y="261.2" style="stroke: #000000; stroke-width: 0.8"/>
      </g>
     </g>
     <g id="text_17">
      <!-- 8 -->
      <g transform="translate(332.203977 275.1875)scale(0.1 -0.1)">
       <use xlink:href="#Cambria-38"/>
      </g>
     </g>
    </g>
    <g id="xtick_28">
     <g id="line2d_85">
      <path d="M 403.954545 261.2 
L 403.954545 162.4 
" clip-path="url(#p61b5b0abf0)" style="fill: none; stroke: #b0b0b0; stroke-opacity: 0.2; stroke-width: 0.8; stroke-linecap: square"/>
     </g>
     <g id="line2d_86">
      <g>
       <use xlink:href="#me409065734" x="403.954545" y="261.2" style="stroke: #000000; stroke-width: 0.8"/>
      </g>
     </g>
     <g id="text_18">
      <!-- 10 -->
      <g transform="translate(398.417045 275.1875)scale(0.1 -0.1)">
       <use xlink:href="#Cambria-31"/>
       <use xlink:href="#Cambria-30" x="55.371094"/>
      </g>
     </g>
    </g>
    <g id="xtick_29">
     <g id="line2d_87">
      <path d="M 76.290909 261.2 
L 76.290909 162.4 
" clip-path="url(#p61b5b0abf0)" style="fill: none; stroke: #b0b0b0; stroke-opacity: 0.2; stroke-width: 0.8; stroke-linecap: square"/>
     </g>
     <g id="line2d_88">
      <g>
       <use xlink:href="#mf7a22475a7" x="76.290909" y="261.2" style="stroke: #000000; stroke-width: 0.1"/>
      </g>
     </g>
    </g>
    <g id="xtick_30">
     <g id="line2d_89">
      <path d="M 93.536364 261.2 
L 93.536364 162.4 
" clip-path="url(#p61b5b0abf0)" style="fill: none; stroke: #b0b0b0; stroke-opacity: 0.2; stroke-width: 0.8; stroke-linecap: square"/>
     </g>
     <g id="line2d_90">
      <g>
       <use xlink:href="#mf7a22475a7" x="93.536364" y="261.2" style="stroke: #000000; stroke-width: 0.1"/>
      </g>
     </g>
    </g>
    <g id="xtick_31">
     <g id="line2d_91">
      <path d="M 110.781818 261.2 
L 110.781818 162.4 
" clip-path="url(#p61b5b0abf0)" style="fill: none; stroke: #b0b0b0; stroke-opacity: 0.2; stroke-width: 0.8; stroke-linecap: square"/>
     </g>
     <g id="line2d_92">
      <g>
       <use xlink:href="#mf7a22475a7" x="110.781818" y="261.2" style="stroke: #000000; stroke-width: 0.1"/>
      </g>
     </g>
    </g>
    <g id="xtick_32">
     <g id="line2d_93">
      <path d="M 145.272727 261.2 
L 145.272727 162.4 
" clip-path="url(#p61b5b0abf0)" style="fill: none; stroke: #b0b0b0; stroke-opacity: 0.2; stroke-width: 0.8; stroke-linecap: square"/>
     </g>
     <g id="line2d_94">
      <g>
       <use xlink:href="#mf7a22475a7" x="145.272727" y="261.2" style="stroke: #000000; stroke-width: 0.1"/>
      </g>
     </g>
    </g>
    <g id="xtick_33">
     <g id="line2d_95">
      <path d="M 162.518182 261.2 
L 162.518182 162.4 
" clip-path="url(#p61b5b0abf0)" style="fill: none; stroke: #b0b0b0; stroke-opacity: 0.2; stroke-width: 0.8; stroke-linecap: square"/>
     </g>
     <g id="line2d_96">
      <g>
       <use xlink:href="#mf7a22475a7" x="162.518182" y="261.2" style="stroke: #000000; stroke-width: 0.1"/>
      </g>
     </g>
    </g>
    <g id="xtick_34">
     <g id="line2d_97">
      <path d="M 179.763636 261.2 
L 179.763636 162.4 
" clip-path="url(#p61b5b0abf0)" style="fill: none; stroke: #b0b0b0; stroke-opacity: 0.2; stroke-width: 0.8; stroke-linecap: square"/>
     </g>
     <g id="line2d_98">
      <g>
       <use xlink:href="#mf7a22475a7" x="179.763636" y="261.2" style="stroke: #000000; stroke-width: 0.1"/>
      </g>
     </g>
    </g>
    <g id="xtick_35">
     <g id="line2d_99">
      <path d="M 214.254545 261.2 
L 214.254545 162.4 
" clip-path="url(#p61b5b0abf0)" style="fill: none; stroke: #b0b0b0; stroke-opacity: 0.2; stroke-width: 0.8; stroke-linecap: square"/>
     </g>
     <g id="line2d_100">
      <g>
       <use xlink:href="#mf7a22475a7" x="214.254545" y="261.2" style="stroke: #000000; stroke-width: 0.1"/>
      </g>
     </g>
    </g>
    <g id="xtick_36">
     <g id="line2d_101">
      <path d="M 231.5 261.2 
L 231.5 162.4 
" clip-path="url(#p61b5b0abf0)" style="fill: none; stroke: #b0b0b0; stroke-opacity: 0.2; stroke-width: 0.8; stroke-linecap: square"/>
     </g>
     <g id="line2d_102">
      <g>
       <use xlink:href="#mf7a22475a7" x="231.5" y="261.2" style="stroke: #000000; stroke-width: 0.1"/>
      </g>
     </g>
    </g>
    <g id="xtick_37">
     <g id="line2d_103">
      <path d="M 248.745455 261.2 
L 248.745455 162.4 
" clip-path="url(#p61b5b0abf0)" style="fill: none; stroke: #b0b0b0; stroke-opacity: 0.2; stroke-width: 0.8; stroke-linecap: square"/>
     </g>
     <g id="line2d_104">
      <g>
       <use xlink:href="#mf7a22475a7" x="248.745455" y="261.2" style="stroke: #000000; stroke-width: 0.1"/>
      </g>
     </g>
    </g>
    <g id="xtick_38">
     <g id="line2d_105">
      <path d="M 283.236364 261.2 
L 283.236364 162.4 
" clip-path="url(#p61b5b0abf0)" style="fill: none; stroke: #b0b0b0; stroke-opacity: 0.2; stroke-width: 0.8; stroke-linecap: square"/>
     </g>
     <g id="line2d_106">
      <g>
       <use xlink:href="#mf7a22475a7" x="283.236364" y="261.2" style="stroke: #000000; stroke-width: 0.1"/>
      </g>
     </g>
    </g>
    <g id="xtick_39">
     <g id="line2d_107">
      <path d="M 300.481818 261.2 
L 300.481818 162.4 
" clip-path="url(#p61b5b0abf0)" style="fill: none; stroke: #b0b0b0; stroke-opacity: 0.2; stroke-width: 0.8; stroke-linecap: square"/>
     </g>
     <g id="line2d_108">
      <g>
       <use xlink:href="#mf7a22475a7" x="300.481818" y="261.2" style="stroke: #000000; stroke-width: 0.1"/>
      </g>
     </g>
    </g>
    <g id="xtick_40">
     <g id="line2d_109">
      <path d="M 317.727273 261.2 
L 317.727273 162.4 
" clip-path="url(#p61b5b0abf0)" style="fill: none; stroke: #b0b0b0; stroke-opacity: 0.2; stroke-width: 0.8; stroke-linecap: square"/>
     </g>
     <g id="line2d_110">
      <g>
       <use xlink:href="#mf7a22475a7" x="317.727273" y="261.2" style="stroke: #000000; stroke-width: 0.1"/>
      </g>
     </g>
    </g>
    <g id="xtick_41">
     <g id="line2d_111">
      <path d="M 352.218182 261.2 
L 352.218182 162.4 
" clip-path="url(#p61b5b0abf0)" style="fill: none; stroke: #b0b0b0; stroke-opacity: 0.2; stroke-width: 0.8; stroke-linecap: square"/>
     </g>
     <g id="line2d_112">
      <g>
       <use xlink:href="#mf7a22475a7" x="352.218182" y="261.2" style="stroke: #000000; stroke-width: 0.1"/>
      </g>
     </g>
    </g>
    <g id="xtick_42">
     <g id="line2d_113">
      <path d="M 369.463636 261.2 
L 369.463636 162.4 
" clip-path="url(#p61b5b0abf0)" style="fill: none; stroke: #b0b0b0; stroke-opacity: 0.2; stroke-width: 0.8; stroke-linecap: square"/>
     </g>
     <g id="line2d_114">
      <g>
       <use xlink:href="#mf7a22475a7" x="369.463636" y="261.2" style="stroke: #000000; stroke-width: 0.1"/>
      </g>
     </g>
    </g>
    <g id="xtick_43">
     <g id="line2d_115">
      <path d="M 386.709091 261.2 
L 386.709091 162.4 
" clip-path="url(#p61b5b0abf0)" style="fill: none; stroke: #b0b0b0; stroke-opacity: 0.2; stroke-width: 0.8; stroke-linecap: square"/>
     </g>
     <g id="line2d_116">
      <g>
       <use xlink:href="#mf7a22475a7" x="386.709091" y="261.2" style="stroke: #000000; stroke-width: 0.1"/>
      </g>
     </g>
    </g>
    <g id="xtick_44">
     <g id="line2d_117">
      <path d="M 421.2 261.2 
L 421.2 162.4 
" clip-path="url(#p61b5b0abf0)" style="fill: none; stroke: #b0b0b0; stroke-opacity: 0.2; stroke-width: 0.8; stroke-linecap: square"/>
     </g>
     <g id="line2d_118">
      <g>
       <use xlink:href="#mf7a22475a7" x="421.2" y="261.2" style="stroke: #000000; stroke-width: 0.1"/>
      </g>
     </g>
    </g>
   </g>
   <g id="matplotlib.axis_4">
    <g id="ytick_14">
     <g id="line2d_119">
      <path d="M 41.8 256.709091 
L 421.2 256.709091 
" clip-path="url(#p61b5b0abf0)" style="fill: none; stroke: #b0b0b0; stroke-opacity: 0.2; stroke-width: 0.8; stroke-linecap: square"/>
     </g>
     <g id="line2d_120">
      <g>
       <use xlink:href="#m6334ee9ef8" x="41.8" y="256.709091" style="stroke: #000000; stroke-width: 0.8"/>
      </g>
     </g>
     <g id="text_19">
      <!-- 0.000 -->
      <g transform="translate(10.598438 260.202841)scale(0.1 -0.1)">
       <defs>
        <path id="Cambria-2e" d="M 972 725 
L 972 0 
L 341 0 
L 341 725 
L 972 725 
z
" transform="scale(0.015625)"/>
       </defs>
       <use xlink:href="#Cambria-30"/>
       <use xlink:href="#Cambria-2e" x="55.371094"/>
       <use xlink:href="#Cambria-30" x="75.878906"/>
       <use xlink:href="#Cambria-30" x="131.25"/>
       <use xlink:href="#Cambria-30" x="186.621094"/>
      </g>
     </g>
    </g>
    <g id="ytick_15">
     <g id="line2d_121">
      <path d="M 41.8 230.629979 
L 421.2 230.629979 
" clip-path="url(#p61b5b0abf0)" style="fill: none; stroke: #b0b0b0; stroke-opacity: 0.2; stroke-width: 0.8; stroke-linecap: square"/>
     </g>
     <g id="line2d_122">
      <g>
       <use xlink:href="#m6334ee9ef8" x="41.8" y="230.629979" style="stroke: #000000; stroke-width: 0.8"/>
      </g>
     </g>
     <g id="text_20">
      <!-- 0.001 -->
      <g transform="translate(10.598438 234.123729)scale(0.1 -0.1)">
       <use xlink:href="#Cambria-30"/>
       <use xlink:href="#Cambria-2e" x="55.371094"/>
       <use xlink:href="#Cambria-30" x="75.878906"/>
       <use xlink:href="#Cambria-30" x="131.25"/>
       <use xlink:href="#Cambria-31" x="186.621094"/>
      </g>
     </g>
    </g>
    <g id="ytick_16">
     <g id="line2d_123">
      <path d="M 41.8 204.550868 
L 421.2 204.550868 
" clip-path="url(#p61b5b0abf0)" style="fill: none; stroke: #b0b0b0; stroke-opacity: 0.2; stroke-width: 0.8; stroke-linecap: square"/>
     </g>
     <g id="line2d_124">
      <g>
       <use xlink:href="#m6334ee9ef8" x="41.8" y="204.550868" style="stroke: #000000; stroke-width: 0.8"/>
      </g>
     </g>
     <g id="text_21">
      <!-- 0.002 -->
      <g transform="translate(10.598438 208.044618)scale(0.1 -0.1)">
       <use xlink:href="#Cambria-30"/>
       <use xlink:href="#Cambria-2e" x="55.371094"/>
       <use xlink:href="#Cambria-30" x="75.878906"/>
       <use xlink:href="#Cambria-30" x="131.25"/>
       <use xlink:href="#Cambria-32" x="186.621094"/>
      </g>
     </g>
    </g>
    <g id="ytick_17">
     <g id="line2d_125">
      <path d="M 41.8 178.471756 
L 421.2 178.471756 
" clip-path="url(#p61b5b0abf0)" style="fill: none; stroke: #b0b0b0; stroke-opacity: 0.2; stroke-width: 0.8; stroke-linecap: square"/>
     </g>
     <g id="line2d_126">
      <g>
       <use xlink:href="#m6334ee9ef8" x="41.8" y="178.471756" style="stroke: #000000; stroke-width: 0.8"/>
      </g>
     </g>
     <g id="text_22">
      <!-- 0.003 -->
      <g transform="translate(10.598438 181.965506)scale(0.1 -0.1)">
       <defs>
        <path id="Cambria-33" d="M 497 3381 
L 497 3975 
Q 859 4147 1175 4231 
Q 1491 4316 1784 4316 
Q 2138 4316 2403 4206 
Q 2669 4097 2809 3892 
Q 2950 3688 2950 3403 
Q 2950 3138 2844 2936 
Q 2738 2734 2545 2584 
Q 2353 2434 2047 2291 
L 2047 2263 
Q 2238 2228 2414 2145 
Q 2591 2063 2728 1931 
Q 2866 1800 2948 1617 
Q 3031 1434 3031 1200 
Q 3031 838 2873 556 
Q 2716 275 2391 112 
Q 2066 -50 1600 -50 
Q 1331 -50 1020 11 
Q 709 72 450 172 
L 450 834 
L 825 834 
Q 934 509 1114 362 
Q 1294 216 1603 216 
Q 2009 216 2217 437 
Q 2425 659 2425 1094 
Q 2425 1550 2150 1790 
Q 1875 2031 1344 2031 
L 1063 2031 
L 1063 2306 
Q 1484 2331 1773 2468 
Q 2063 2606 2203 2822 
Q 2344 3038 2344 3306 
Q 2344 3653 2159 3840 
Q 1975 4028 1622 4028 
Q 1328 4028 1143 3868 
Q 959 3709 872 3381 
L 497 3381 
z
" transform="scale(0.015625)"/>
       </defs>
       <use xlink:href="#Cambria-30"/>
       <use xlink:href="#Cambria-2e" x="55.371094"/>
       <use xlink:href="#Cambria-30" x="75.878906"/>
       <use xlink:href="#Cambria-30" x="131.25"/>
       <use xlink:href="#Cambria-33" x="186.621094"/>
      </g>
     </g>
    </g>
    <g id="ytick_18">
     <g id="line2d_127">
      <path d="M 41.8 251.493269 
L 421.2 251.493269 
" clip-path="url(#p61b5b0abf0)" style="fill: none; stroke: #b0b0b0; stroke-opacity: 0.2; stroke-width: 0.8; stroke-linecap: square"/>
     </g>
     <g id="line2d_128">
      <g>
       <use xlink:href="#mcad79be64e" x="41.8" y="251.493269" style="stroke: #000000; stroke-width: 0.1"/>
      </g>
     </g>
    </g>
    <g id="ytick_19">
     <g id="line2d_129">
      <path d="M 41.8 246.277446 
L 421.2 246.277446 
" clip-path="url(#p61b5b0abf0)" style="fill: none; stroke: #b0b0b0; stroke-opacity: 0.2; stroke-width: 0.8; stroke-linecap: square"/>
     </g>
     <g id="line2d_130">
      <g>
       <use xlink:href="#mcad79be64e" x="41.8" y="246.277446" style="stroke: #000000; stroke-width: 0.1"/>
      </g>
     </g>
    </g>
    <g id="ytick_20">
     <g id="line2d_131">
      <path d="M 41.8 241.061624 
L 421.2 241.061624 
" clip-path="url(#p61b5b0abf0)" style="fill: none; stroke: #b0b0b0; stroke-opacity: 0.2; stroke-width: 0.8; stroke-linecap: square"/>
     </g>
     <g id="line2d_132">
      <g>
       <use xlink:href="#mcad79be64e" x="41.8" y="241.061624" style="stroke: #000000; stroke-width: 0.1"/>
      </g>
     </g>
    </g>
    <g id="ytick_21">
     <g id="line2d_133">
      <path d="M 41.8 235.845802 
L 421.2 235.845802 
" clip-path="url(#p61b5b0abf0)" style="fill: none; stroke: #b0b0b0; stroke-opacity: 0.2; stroke-width: 0.8; stroke-linecap: square"/>
     </g>
     <g id="line2d_134">
      <g>
       <use xlink:href="#mcad79be64e" x="41.8" y="235.845802" style="stroke: #000000; stroke-width: 0.1"/>
      </g>
     </g>
    </g>
    <g id="ytick_22">
     <g id="line2d_135">
      <path d="M 41.8 225.414157 
L 421.2 225.414157 
" clip-path="url(#p61b5b0abf0)" style="fill: none; stroke: #b0b0b0; stroke-opacity: 0.2; stroke-width: 0.8; stroke-linecap: square"/>
     </g>
     <g id="line2d_136">
      <g>
       <use xlink:href="#mcad79be64e" x="41.8" y="225.414157" style="stroke: #000000; stroke-width: 0.1"/>
      </g>
     </g>
    </g>
    <g id="ytick_23">
     <g id="line2d_137">
      <path d="M 41.8 220.198335 
L 421.2 220.198335 
" clip-path="url(#p61b5b0abf0)" style="fill: none; stroke: #b0b0b0; stroke-opacity: 0.2; stroke-width: 0.8; stroke-linecap: square"/>
     </g>
     <g id="line2d_138">
      <g>
       <use xlink:href="#mcad79be64e" x="41.8" y="220.198335" style="stroke: #000000; stroke-width: 0.1"/>
      </g>
     </g>
    </g>
    <g id="ytick_24">
     <g id="line2d_139">
      <path d="M 41.8 214.982512 
L 421.2 214.982512 
" clip-path="url(#p61b5b0abf0)" style="fill: none; stroke: #b0b0b0; stroke-opacity: 0.2; stroke-width: 0.8; stroke-linecap: square"/>
     </g>
     <g id="line2d_140">
      <g>
       <use xlink:href="#mcad79be64e" x="41.8" y="214.982512" style="stroke: #000000; stroke-width: 0.1"/>
      </g>
     </g>
    </g>
    <g id="ytick_25">
     <g id="line2d_141">
      <path d="M 41.8 209.76669 
L 421.2 209.76669 
" clip-path="url(#p61b5b0abf0)" style="fill: none; stroke: #b0b0b0; stroke-opacity: 0.2; stroke-width: 0.8; stroke-linecap: square"/>
     </g>
     <g id="line2d_142">
      <g>
       <use xlink:href="#mcad79be64e" x="41.8" y="209.76669" style="stroke: #000000; stroke-width: 0.1"/>
      </g>
     </g>
    </g>
    <g id="ytick_26">
     <g id="line2d_143">
      <path d="M 41.8 199.335045 
L 421.2 199.335045 
" clip-path="url(#p61b5b0abf0)" style="fill: none; stroke: #b0b0b0; stroke-opacity: 0.2; stroke-width: 0.8; stroke-linecap: square"/>
     </g>
     <g id="line2d_144">
      <g>
       <use xlink:href="#mcad79be64e" x="41.8" y="199.335045" style="stroke: #000000; stroke-width: 0.1"/>
      </g>
     </g>
    </g>
    <g id="ytick_27">
     <g id="line2d_145">
      <path d="M 41.8 194.119223 
L 421.2 194.119223 
" clip-path="url(#p61b5b0abf0)" style="fill: none; stroke: #b0b0b0; stroke-opacity: 0.2; stroke-width: 0.8; stroke-linecap: square"/>
     </g>
     <g id="line2d_146">
      <g>
       <use xlink:href="#mcad79be64e" x="41.8" y="194.119223" style="stroke: #000000; stroke-width: 0.1"/>
      </g>
     </g>
    </g>
    <g id="ytick_28">
     <g id="line2d_147">
      <path d="M 41.8 188.903401 
L 421.2 188.903401 
" clip-path="url(#p61b5b0abf0)" style="fill: none; stroke: #b0b0b0; stroke-opacity: 0.2; stroke-width: 0.8; stroke-linecap: square"/>
     </g>
     <g id="line2d_148">
      <g>
       <use xlink:href="#mcad79be64e" x="41.8" y="188.903401" style="stroke: #000000; stroke-width: 0.1"/>
      </g>
     </g>
    </g>
    <g id="ytick_29">
     <g id="line2d_149">
      <path d="M 41.8 183.687578 
L 421.2 183.687578 
" clip-path="url(#p61b5b0abf0)" style="fill: none; stroke: #b0b0b0; stroke-opacity: 0.2; stroke-width: 0.8; stroke-linecap: square"/>
     </g>
     <g id="line2d_150">
      <g>
       <use xlink:href="#mcad79be64e" x="41.8" y="183.687578" style="stroke: #000000; stroke-width: 0.1"/>
      </g>
     </g>
    </g>
    <g id="ytick_30">
     <g id="line2d_151">
      <path d="M 41.8 173.255933 
L 421.2 173.255933 
" clip-path="url(#p61b5b0abf0)" style="fill: none; stroke: #b0b0b0; stroke-opacity: 0.2; stroke-width: 0.8; stroke-linecap: square"/>
     </g>
     <g id="line2d_152">
      <g>
       <use xlink:href="#mcad79be64e" x="41.8" y="173.255933" style="stroke: #000000; stroke-width: 0.1"/>
      </g>
     </g>
    </g>
    <g id="ytick_31">
     <g id="line2d_153">
      <path d="M 41.8 168.040111 
L 421.2 168.040111 
" clip-path="url(#p61b5b0abf0)" style="fill: none; stroke: #b0b0b0; stroke-opacity: 0.2; stroke-width: 0.8; stroke-linecap: square"/>
     </g>
     <g id="line2d_154">
      <g>
       <use xlink:href="#mcad79be64e" x="41.8" y="168.040111" style="stroke: #000000; stroke-width: 0.1"/>
      </g>
     </g>
    </g>
    <g id="ytick_32">
     <g id="line2d_155">
      <path d="M 41.8 162.824289 
L 421.2 162.824289 
" clip-path="url(#p61b5b0abf0)" style="fill: none; stroke: #b0b0b0; stroke-opacity: 0.2; stroke-width: 0.8; stroke-linecap: square"/>
     </g>
     <g id="line2d_156">
      <g>
       <use xlink:href="#mcad79be64e" x="41.8" y="162.824289" style="stroke: #000000; stroke-width: 0.1"/>
      </g>
     </g>
    </g>
   </g>
   <g id="line2d_157">
    <path d="M 59.045455 256.709091 
L 65.943636 256.170679 
L 73.704091 255.801472 
L 83.189091 255.585562 
L 95.260909 255.54313 
L 114.230909 255.726632 
L 175.452273 256.438808 
L 217.703636 256.624219 
L 296.170455 256.70027 
L 403.954545 256.708608 
L 403.954545 256.708608 
" clip-path="url(#p61b5b0abf0)" style="fill: none; stroke: #0000ff; stroke-linecap: square"/>
   </g>
   <g id="line2d_158">
    <path d="M 59.045455 256.709091 
L 60.77 244.714868 
L 62.494545 233.91307 
L 64.219091 224.217064 
L 65.943636 215.54576 
L 67.668182 207.823302 
L 69.392727 200.978752 
L 71.117273 194.945783 
L 72.841818 189.662398 
L 74.566364 185.07066 
L 76.290909 181.11644 
L 78.015455 177.749184 
L 79.74 174.921692 
L 81.464545 172.589905 
L 83.189091 170.712712 
L 84.913636 169.251768 
L 86.638182 168.171316 
L 88.362727 167.438033 
L 90.087273 167.020868 
L 91.811818 166.890909 
L 93.536364 167.021241 
L 95.260909 167.386826 
L 96.985455 167.964381 
L 98.71 168.732272 
L 101.296818 170.197431 
L 103.883636 171.984161 
L 106.470455 174.037294 
L 109.919545 177.105057 
L 114.230909 181.330417 
L 119.404545 186.759521 
L 138.374545 207.008416 
L 143.548182 212.091352 
L 148.721818 216.858171 
L 153.895455 221.279215 
L 158.206818 224.688844 
L 162.518182 227.846989 
L 166.829545 230.756823 
L 171.140909 233.425125 
L 175.452273 235.861392 
L 179.763636 238.077087 
L 184.937273 240.462842 
L 190.110909 242.572999 
L 195.284545 244.431751 
L 200.458182 246.063126 
L 206.494091 247.709981 
L 212.53 249.113809 
L 219.428182 250.461623 
L 226.326364 251.576818 
L 234.086818 252.600032 
L 242.709545 253.502821 
L 252.194545 254.270605 
L 263.404091 254.945802 
L 276.338182 255.496718 
L 292.721364 255.955153 
L 313.415909 256.296226 
L 343.595455 256.545684 
L 382.397727 256.656573 
L 402.23 256.38691 
L 403.954545 256.347693 
L 403.954545 256.347693 
" clip-path="url(#p61b5b0abf0)" style="fill: none; stroke: #008000; stroke-linecap: square"/>
   </g>
   <g id="patch_9">
    <path d="M 41.8 261.2 
L 41.8 162.4 
" style="fill: none; stroke: #000000; stroke-width: 0.8; stroke-linejoin: miter; stroke-linecap: square"/>
   </g>
   <g id="patch_10">
    <path d="M 421.2 261.2 
L 421.2 162.4 
" style="fill: none; stroke: #000000; stroke-width: 0.8; stroke-linejoin: miter; stroke-linecap: square"/>
   </g>
   <g id="patch_11">
    <path d="M 41.8 261.2 
L 421.2 261.2 
" style="fill: none; stroke: #000000; stroke-width: 0.8; stroke-linejoin: miter; stroke-linecap: square"/>
   </g>
   <g id="patch_12">
    <path d="M 41.8 162.4 
L 421.2 162.4 
" style="fill: none; stroke: #000000; stroke-width: 0.8; stroke-linejoin: miter; stroke-linecap: square"/>
   </g>
   <g id="text_23">
    <!-- Absolute error -->
    <g transform="translate(200.235156 156.4)scale(0.1 -0.1)">
     <defs>
      <path id="Cambria-41" d="M 2488 0 
L 2488 153 
Q 2644 184 2720 221 
Q 2797 259 2834 326 
Q 2872 394 2872 506 
Q 2872 613 2847 736 
Q 2822 859 2775 1013 
L 2659 1416 
L 1203 1416 
L 1097 1109 
Q 1016 878 991 759 
Q 966 641 966 544 
Q 966 356 1061 268 
Q 1156 181 1353 153 
L 1353 0 
L 19 0 
L 19 153 
Q 194 181 323 356 
Q 453 531 575 856 
L 1878 4316 
L 2372 4316 
L 3434 831 
Q 3509 588 3567 459 
Q 3625 331 3706 259 
Q 3788 188 3928 153 
L 3928 0 
L 2488 0 
z
M 1288 1688 
L 2594 1688 
L 2000 3703 
L 1288 1688 
z
" transform="scale(0.015625)"/>
      <path id="Cambria-62" d="M 1091 2497 
L 1103 2494 
Q 1322 2722 1467 2825 
Q 1613 2928 1767 2983 
Q 1922 3038 2106 3038 
Q 2441 3038 2680 2867 
Q 2919 2697 3048 2356 
Q 3178 2016 3178 1522 
Q 3178 1013 3023 661 
Q 2869 309 2567 129 
Q 2266 -50 1853 -50 
Q 1622 -50 1417 -8 
Q 1213 34 988 141 
L 769 -50 
L 553 0 
L 553 3397 
Q 553 3697 548 3815 
Q 544 3934 523 4017 
Q 503 4100 467 4147 
Q 431 4194 370 4222 
Q 309 4250 150 4278 
L 150 4441 
L 906 4472 
L 1091 4472 
L 1091 2497 
z
M 1091 1125 
Q 1091 884 1112 742 
Q 1134 600 1186 506 
Q 1238 413 1336 334 
Q 1434 256 1556 226 
Q 1678 197 1828 197 
Q 2203 197 2397 503 
Q 2591 809 2591 1422 
Q 2591 2041 2414 2352 
Q 2238 2663 1881 2663 
Q 1703 2663 1578 2608 
Q 1453 2553 1329 2437 
Q 1206 2322 1148 2209 
Q 1091 2097 1091 1953 
L 1091 1125 
z
" transform="scale(0.015625)"/>
      <path id="Cambria-72" d="M 1147 2469 
L 1191 2459 
Q 1363 2669 1509 2789 
Q 1656 2909 1826 2975 
Q 1997 3041 2213 3041 
Q 2394 3041 2541 3022 
L 2541 2303 
L 2188 2303 
Q 2113 2472 2028 2548 
Q 1944 2625 1797 2625 
Q 1684 2625 1573 2559 
Q 1463 2494 1359 2369 
Q 1256 2244 1217 2134 
Q 1178 2025 1178 1875 
L 1178 781 
Q 1178 497 1212 389 
Q 1247 281 1326 231 
Q 1406 181 1566 153 
L 1566 0 
L 306 0 
L 306 153 
Q 425 191 476 219 
Q 528 247 565 297 
Q 603 347 622 450 
Q 641 553 641 772 
L 641 2134 
Q 641 2334 634 2456 
Q 628 2578 590 2651 
Q 553 2725 476 2761 
Q 400 2797 259 2822 
L 259 2984 
L 991 3016 
L 1181 3016 
L 1147 2469 
z
" transform="scale(0.015625)"/>
     </defs>
     <use xlink:href="#Cambria-41"/>
     <use xlink:href="#Cambria-62" x="61.554688"/>
     <use xlink:href="#Cambria-73" x="116.291016"/>
     <use xlink:href="#Cambria-6f" x="159.259766"/>
     <use xlink:href="#Cambria-6c" x="212.335938"/>
     <use xlink:href="#Cambria-75" x="239.484375"/>
     <use xlink:href="#Cambria-74" x="294.708984"/>
     <use xlink:href="#Cambria-65" x="328.546875"/>
     <use xlink:href="#Cambria-20" x="377.326172"/>
     <use xlink:href="#Cambria-65" x="399.347656"/>
     <use xlink:href="#Cambria-72" x="448.126953"/>
     <use xlink:href="#Cambria-72" x="489.484375"/>
     <use xlink:href="#Cambria-6f" x="530.841797"/>
     <use xlink:href="#Cambria-72" x="583.917969"/>
    </g>
   </g>
   <g id="legend_2">
    <g id="patch_13">
     <path d="M 354.778125 198.6 
L 414.2 198.6 
Q 416.2 198.6 416.2 196.6 
L 416.2 169.4 
Q 416.2 167.4 414.2 167.4 
L 354.778125 167.4 
Q 352.778125 167.4 352.778125 169.4 
L 352.778125 196.6 
Q 352.778125 198.6 354.778125 198.6 
z
" style="fill: #ffffff; opacity: 0.8; stroke: #cccccc; stroke-linejoin: miter"/>
    </g>
    <g id="line2d_159">
     <path d="M 356.778125 174.9 
L 366.778125 174.9 
L 376.778125 174.9 
" style="fill: none; stroke: #0000ff; stroke-linecap: square"/>
    </g>
    <g id="text_24">
     <!-- Case 1 -->
     <g transform="translate(384.778125 178.4)scale(0.1 -0.1)">
      <use xlink:href="#Cambria-43"/>
      <use xlink:href="#Cambria-61" x="56.25"/>
      <use xlink:href="#Cambria-73" x="105.078125"/>
      <use xlink:href="#Cambria-65" x="148.046875"/>
      <use xlink:href="#Cambria-20" x="196.826172"/>
      <use xlink:href="#Cambria-31" x="218.847656"/>
     </g>
    </g>
    <g id="line2d_160">
     <path d="M 356.778125 189 
L 366.778125 189 
L 376.778125 189 
" style="fill: none; stroke: #008000; stroke-linecap: square"/>
    </g>
    <g id="text_25">
     <!-- Case 2 -->
     <g transform="translate(384.778125 192.5)scale(0.1 -0.1)">
      <use xlink:href="#Cambria-43"/>
      <use xlink:href="#Cambria-61" x="56.25"/>
      <use xlink:href="#Cambria-73" x="105.078125"/>
      <use xlink:href="#Cambria-65" x="148.046875"/>
      <use xlink:href="#Cambria-20" x="196.826172"/>
      <use xlink:href="#Cambria-32" x="218.847656"/>
     </g>
    </g>
   </g>
  </g>
 </g>
 <defs>
  <clipPath id="p537cb9b2cc">
   <rect x="41.8" y="23.8" width="379.4" height="98.8"/>
  </clipPath>
  <clipPath id="p61b5b0abf0">
   <rect x="41.8" y="162.4" width="379.4" height="98.8"/>
  </clipPath>
 </defs>
</svg>
