<?xml version="1.0" encoding="utf-8"?>
<!-- Generator: Adobe Illustrator 16.0.0, SVG Export Plug-In . SVG Version: 6.00 Build 0)  -->
<!DOCTYPE svg PUBLIC "-//W3C//DTD SVG 1.1//EN" "http://www.w3.org/Graphics/SVG/1.1/DTD/svg11.dtd">
<svg version="1.1" id="Layer_1" xmlns="http://www.w3.org/2000/svg" xmlns:xlink="http://www.w3.org/1999/xlink" x="0px" y="0px"
	 width="539px" height="110px" viewBox="0 0 539 110" enable-background="new 0 0 539 110" xml:space="preserve">
<polygon fill="#333F48" points="57.496,29.778 57.646,28.729 61.786,28.818 65.746,28.729 65.896,29.778 63.346,30.168 
	63.346,38.117 72.945,38.117 72.945,30.168 70.246,29.778 70.395,28.729 74.535,28.818 78.495,28.729 78.645,29.778 76.096,30.168 
	76.096,48.347 78.645,48.737 78.495,49.787 74.535,49.697 70.395,49.787 70.246,48.737 72.945,48.347 72.945,39.617 63.346,39.617 
	63.346,48.347 65.896,48.737 65.746,49.787 61.786,49.697 57.646,49.787 57.496,48.737 60.196,48.347 60.196,30.168 "/>
<path fill="#333F48" d="M84.196,49.697l-3.45,0.09l-0.151-1.05l2.101-0.3V37.488l-2.101,0.18l-0.149-1.05l3.601-0.93l1.499-0.12
	v12.869l2.25,0.3l-0.15,1.05L84.196,49.697z M82.696,29.058l2.159-0.15l0.841,0.15l0.149,1.68l-0.33,1.44l-2.129,0.18l-0.81-0.18
	l-0.18-1.68L82.696,29.058z"/>
<polygon fill="#333F48" points="93.047,49.697 89.597,49.787 89.446,48.737 91.547,48.438 91.547,30.378 89.446,30.438 
	89.297,29.388 92.897,28.458 94.397,28.338 94.397,48.438 96.647,48.737 96.496,49.787 "/>
<g>
	<defs>
		<rect id="SVGID_1_" x="-52" y="-51" width="792" height="288"/>
	</defs>
	<clipPath id="SVGID_2_">
		<use xlink:href="#SVGID_1_"  overflow="visible"/>
	</clipPath>
	<path clip-path="url(#SVGID_2_)" fill="#333F48" d="M110.686,45.857c0,1.2,0.211,1.74,0.511,2.19h1.679l0.121,1.11l-4.02,0.75
		l-0.93-2.31l-3.871,2.61c-3.808,0-6.239-2.85-6.239-6.99c0-4.86,2.97-7.41,7.35-8.01c0.6,0,1.86,0.48,2.549,0.81v-5.669
		l-2.099,0.06l-0.151-1.02l3.6-0.931l1.5-0.119V45.857z M106.937,46.578l0.899-0.72v-7.95c-0.66-0.75-1.709-1.2-2.969-1.2
		c-2.4,0-3.93,2.19-3.93,5.73c0,3.33,1.319,5.37,3.12,5.37C104.867,47.808,105.887,47.417,106.937,46.578"/>
	<path clip-path="url(#SVGID_2_)" fill="#333F48" d="M116.987,42.108c0,3.419,1.83,5.85,4.98,5.85c1.199,0,2.64-0.571,3.75-1.261
		l0.48,1.14c-1.44,0.99-3.329,1.831-5.249,2.371c-3.631,0-6.901-2.58-6.901-7.29c0-4.44,2.67-6.81,6.78-7.71
		c3.961,0,5.31,2.49,5.31,5.64v1.26H116.987z M123.017,40.608c0-2.31-0.45-3.9-2.76-3.9c-1.83,0-3,1.71-3.239,4.2L123.017,40.608z"
		/>
	<path clip-path="url(#SVGID_2_)" fill="#333F48" d="M134.266,50.208c-2.969,0-3.989-0.721-5.219-1.35v-18.51l-2.1,0.06l-0.15-1.02
		l3.6-0.93l1.5-0.12v9.72l3.779-2.85c3.301,0,6.12,2.58,6.12,6.84C141.796,47.237,138.737,49.547,134.266,50.208 M135.676,37.608
		c-0.81,0-1.83,0.39-2.879,1.23l-0.9,0.72v7.949c0.66,0.75,1.71,1.201,2.969,1.201c2.4,0,3.93-2.19,3.93-5.73
		C138.796,39.648,137.477,37.608,135.676,37.608"/>
	<path clip-path="url(#SVGID_2_)" fill="#333F48" d="M148.306,39.558l3.42-4.2h2.399v3h-2.219c-0.72,0.15-2.04,1.14-2.85,2.13
		l-0.601,0.72v7.14l3.151,0.3l-0.151,1.139l-4.349-0.089l-3.36,0.089l-0.15-1.049l2.1-0.3v-10.95l-2.1,0.18l-0.15-1.05l3.6-0.93
		l1.2-0.09L148.306,39.558z"/>
	<path clip-path="url(#SVGID_2_)" fill="#333F48" d="M161.085,35.208c3.78,0,4.74,0.96,4.74,4.77v5.88c0,1.29,0.21,1.77,0.51,2.25
		h1.5l0.119,1.05l-3.869,0.75l-0.93-2.31l-3.57,2.61c-2.58,0-4.41-1.44-4.41-3.84c0-1.08,0.391-1.86,1.05-2.76l6.75-2.25v-1.5
		c0-1.8-0.149-2.88-1.771-2.88c-0.809,0-1.798,0.27-2.458,0.54l-0.51,2.37h-2.58v-2.28L161.085,35.208z M162.976,42.558l-4.351,1.8
		c-0.449,0.45-0.599,1.05-0.599,1.68c0,1.53,0.87,2.07,1.74,2.07c0.84,0,1.561-0.51,1.95-0.78l1.26-0.87V42.558z"/>
	<path clip-path="url(#SVGID_2_)" fill="#333F48" d="M172.756,49.697l-3.45,0.09l-0.15-1.05l2.1-0.3V37.488l-2.1,0.18l-0.15-1.051
		l3.6-0.929l1.29-0.091l0.15,2.52l4.439-2.909c3.84,0,4.47,1.29,4.47,4.889v8.34l2.28,0.3l-0.149,1.05l-3.451-0.09l-2.879,0.09
		l-0.15-1.05l1.5-0.3v-8.579c0-1.56-0.69-2.25-1.981-2.25c-1.049,0-2.099,0.659-3.119,1.35l-0.9,0.599v8.88l1.65,0.3l-0.15,1.05
		L172.756,49.697z"/>
	<path clip-path="url(#SVGID_2_)" fill="#333F48" d="M198.945,45.857c0,1.2,0.211,1.74,0.511,2.19h1.679l0.121,1.11l-4.02,0.75
		l-0.93-2.31l-3.871,2.61c-3.808,0-6.239-2.85-6.239-6.99c0-4.86,2.97-7.41,7.35-8.01c0.6,0,1.86,0.48,2.549,0.81v-5.669
		l-2.099,0.06l-0.151-1.02l3.6-0.931l1.5-0.119V45.857z M195.196,46.578l0.899-0.72v-7.95c-0.66-0.75-1.709-1.2-2.969-1.2
		c-2.4,0-3.93,2.19-3.93,5.73c0,3.33,1.319,5.37,3.12,5.37C193.126,47.808,194.146,47.417,195.196,46.578"/>
	<path clip-path="url(#SVGID_2_)" fill="#333F48" d="M214.157,28.818l5.968-0.09c6.121-0.03,9.901,3.51,9.901,9.93
		c0,6.48-3.391,10.349-10.199,11.129l-5.67-0.09l-4.051,0.09l-0.15-1.05l2.701-0.39V30.168l-2.701-0.39l0.15-1.05L214.157,28.818z
		 M215.806,30.168v17.969l3.75,0.301c4.17,0,6.989-3.75,6.989-9.39c0-5.04-2.609-9.03-7.829-9.03L215.806,30.168z"/>
	<path clip-path="url(#SVGID_2_)" fill="#333F48" d="M235.216,42.108c0,3.419,1.83,5.85,4.979,5.85c1.2,0,2.641-0.571,3.75-1.261
		l0.481,1.14c-1.441,0.99-3.33,1.831-5.25,2.371c-3.63,0-6.901-2.58-6.901-7.29c0-4.44,2.67-6.81,6.781-7.71
		c3.96,0,5.309,2.49,5.309,5.64v1.26H235.216z M241.246,40.608c0-2.31-0.45-3.9-2.76-3.9c-1.83,0-3,1.71-3.24,4.2L241.246,40.608z"
		/>
	<path clip-path="url(#SVGID_2_)" fill="#333F48" d="M250.577,49.577v5.76l3.149,0.3l-0.149,1.05l-4.351-0.09l-3.45,0.09
		l-0.149-1.05l2.099-0.3V37.458l-2.099,0.18l-0.15-1.02l3.6-0.93l1.289-0.09l0.15,2.49l3.84-2.88c3.87,0,6.119,2.64,6.119,6.99
		c0,5.099-3.058,7.409-7.529,8.01C252.105,50.208,251.266,49.967,250.577,49.577 M254.355,37.458c-0.811,0-1.77,0.54-2.88,1.38
		l-0.899,0.69v7.53c0.689,1.049,1.92,1.65,3.269,1.65c2.16,0,3.63-2.13,3.63-5.581C257.476,39.618,256.155,37.458,254.355,37.458"/>
	<path clip-path="url(#SVGID_2_)" fill="#333F48" d="M268.334,35.208c3.781,0,4.74,0.96,4.74,4.77v5.88c0,1.29,0.211,1.77,0.51,2.25
		h1.5l0.12,1.05l-3.87,0.75l-0.929-2.31l-3.571,2.61c-2.579,0-4.409-1.44-4.409-3.84c0-1.08,0.39-1.86,1.049-2.76l6.75-2.25v-1.5
		c0-1.8-0.149-2.88-1.77-2.88c-0.81,0-1.799,0.27-2.459,0.54l-0.51,2.37h-2.58v-2.28L268.334,35.208z M270.225,42.558l-4.35,1.8
		c-0.449,0.45-0.599,1.05-0.599,1.68c0,1.53,0.869,2.07,1.74,2.07c0.84,0,1.56-0.51,1.949-0.78l1.26-0.87V42.558z"/>
	<path clip-path="url(#SVGID_2_)" fill="#333F48" d="M281.115,39.558l3.42-4.2h2.4v3h-2.22c-0.72,0.15-2.039,1.14-2.85,2.13
		l-0.6,0.72v7.14l3.15,0.3l-0.15,1.139l-4.35-0.089l-3.36,0.089l-0.15-1.049l2.101-0.3v-10.95l-2.101,0.18l-0.149-1.05l3.599-0.93
		l1.199-0.09L281.115,39.558z"/>
	<path clip-path="url(#SVGID_2_)" fill="#333F48" d="M287.535,37.368v-0.51l1.05-1.05h1.95v-1.95l1.949-1.949h0.781v4.109h4.53v1.35
		h-4.5v8.79c0,0.87,0.33,1.8,1.59,1.8c0.87,0,1.53-0.3,2.37-0.72l0.509,1.02l-3.509,1.95c-3.361,0-3.81-1.2-3.81-3.9v-8.94H287.535z
		"/>
	<path clip-path="url(#SVGID_2_)" fill="#333F48" d="M319.754,49.697l-2.85,0.09l-0.15-1.05l1.5-0.3v-8.579
		c0-1.56-0.66-2.25-1.74-2.25c-0.9,0-2.01,0.6-3.06,1.35l-0.899,0.63v8.849l1.349,0.3l-0.15,1.05l-2.55-0.09l-2.7,0.09l-0.149-1.05
		l1.35-0.3v-8.579c0-1.56-0.66-2.25-1.74-2.25c-0.9,0-2.01,0.6-3.061,1.35l-0.899,0.63v8.849l1.499,0.3l-0.149,1.05l-2.701-0.09
		l-3.449,0.09l-0.15-1.05l2.099-0.3V37.488l-2.099,0.18l-0.151-1.051l3.601-0.929l1.29-0.091l0.15,2.491l4.139-2.88
		c2.91,0,3.99,0.87,4.32,2.94l4.231-2.94c3.84,0,4.469,1.44,4.469,5.249v7.98l2.25,0.3l-0.15,1.05L319.754,49.697z"/>
	<path clip-path="url(#SVGID_2_)" fill="#333F48" d="M327.254,42.108c0,3.419,1.83,5.85,4.98,5.85c1.199,0,2.64-0.571,3.75-1.261
		l0.48,1.14c-1.44,0.99-3.329,1.831-5.249,2.371c-3.631,0-6.901-2.58-6.901-7.29c0-4.44,2.67-6.81,6.78-7.71
		c3.961,0,5.31,2.49,5.31,5.64v1.26H327.254z M333.284,40.608c0-2.31-0.45-3.9-2.76-3.9c-1.83,0-3,1.71-3.239,4.2L333.284,40.608z"
		/>
	<path clip-path="url(#SVGID_2_)" fill="#333F48" d="M341.715,49.697l-3.45,0.09l-0.151-1.05l2.101-0.3V37.488l-2.101,0.18
		l-0.149-1.051l3.6-0.929l1.289-0.091l0.15,2.52l4.439-2.909c3.841,0,4.471,1.29,4.471,4.889v8.34l2.279,0.3l-0.149,1.05l-3.45-0.09
		l-2.88,0.09l-0.149-1.05l1.5-0.3v-8.579c0-1.56-0.69-2.25-1.98-2.25c-1.05,0-2.1,0.659-3.119,1.35l-0.9,0.599v8.88l1.65,0.3
		l-0.15,1.05L341.715,49.697z"/>
	<path clip-path="url(#SVGID_2_)" fill="#333F48" d="M354.104,37.368v-0.51l1.05-1.05h1.949v-1.95l1.95-1.949h0.779v4.109h4.53v1.35
		h-4.499v8.79c0,0.87,0.329,1.8,1.59,1.8c0.87,0,1.529-0.3,2.369-0.72l0.51,1.02l-3.509,1.95c-3.36,0-3.811-1.2-3.811-3.9v-8.94
		H354.104z"/>
	<path clip-path="url(#SVGID_2_)" fill="#333F48" d="M386.893,42.407c0,4.47-2.729,7.05-7.38,7.8c-3.989,0-6.689-3.09-6.689-7.17
		c0-4.5,2.73-7.05,7.38-7.829C384.193,35.208,386.893,38.327,386.893,42.407 M380.263,48.737c2.4,0,3.63-2.46,3.63-5.7
		c0-3.81-1.829-6.36-4.439-6.36c-2.43,0-3.63,2.46-3.63,5.73C375.823,45.827,377.593,48.737,380.263,48.737"/>
	<path clip-path="url(#SVGID_2_)" fill="#333F48" d="M393.643,35.958h3.75v1.41h-3.75v11.069l3.45,0.21l-0.149,1.14l-4.65-0.09
		l-3.449,0.09l-0.15-1.05l2.1-0.3V37.368h-2.64v-0.51l0.9-1.05h1.739v-0.3c0-1.8,0.57-2.97,1.65-4.2l2.52-2.85h3.78v2.4h-3.9
		l-0.569,0.81c-0.42,0.57-0.631,1.44-0.631,3.39V35.958z"/>
	<path clip-path="url(#SVGID_2_)" fill="#333F48" d="M406.093,29.778l0.149-1.051l4.05,0.091l5.85-0.091
		c3.75-0.029,6.6,1.801,6.6,5.311c0,4.019-3.778,5.909-7.499,6.689h-3.3v7.62l3.6,0.39l-0.15,1.05l-5.01-0.09l-4.14,0.09
		l-0.149-1.05l2.699-0.39v-18.18L406.093,29.778z M411.942,39.228h2.55c2.819,0,4.8-1.95,4.8-4.8c0-2.579-1.38-4.439-4.5-4.439
		l-2.85,0.179V39.228z"/>
	<path clip-path="url(#SVGID_2_)" fill="#333F48" d="M425.833,42.108c0,3.419,1.829,5.85,4.979,5.85c1.2,0,2.64-0.571,3.75-1.261
		l0.479,1.14c-1.439,0.99-3.33,1.831-5.25,2.371c-3.63,0-6.899-2.58-6.899-7.29c0-4.44,2.67-6.81,6.78-7.71
		c3.959,0,5.31,2.49,5.31,5.64v1.26H425.833z M431.862,40.608c0-2.31-0.45-3.9-2.76-3.9c-1.83,0-3,1.71-3.24,4.2L431.862,40.608z"/>
	<path clip-path="url(#SVGID_2_)" fill="#333F48" d="M435.793,37.368v-0.51l1.05-1.05h1.949v-1.95l1.95-1.949h0.779v4.109h4.53v1.35
		h-4.499v8.79c0,0.87,0.33,1.8,1.59,1.8c0.87,0,1.529-0.3,2.369-0.72l0.51,1.02l-3.509,1.95c-3.36,0-3.811-1.2-3.811-3.9v-8.94
		H435.793z"/>
	<path clip-path="url(#SVGID_2_)" fill="#333F48" d="M452.022,39.558l3.42-4.2h2.399v3h-2.22c-0.72,0.15-2.04,1.14-2.85,2.13
		l-0.6,0.72v7.14l3.149,0.3l-0.15,1.139l-4.35-0.089l-3.359,0.089l-0.15-1.049l2.1-0.3v-10.95l-2.1,0.18l-0.149-1.05l3.6-0.93
		l1.2-0.09L452.022,39.558z"/>
	<path clip-path="url(#SVGID_2_)" fill="#333F48" d="M473.052,42.407c0,4.47-2.729,7.05-7.38,7.8c-3.989,0-6.689-3.09-6.689-7.17
		c0-4.5,2.73-7.05,7.379-7.829C470.353,35.208,473.052,38.327,473.052,42.407 M466.422,48.737c2.4,0,3.63-2.46,3.63-5.7
		c0-3.81-1.829-6.36-4.44-6.36c-2.429,0-3.629,2.46-3.629,5.73C461.982,45.827,463.752,48.737,466.422,48.737"/>
	<polygon clip-path="url(#SVGID_2_)" fill="#333F48" points="477.702,49.697 474.253,49.787 474.102,48.737 476.202,48.438 
		476.202,30.378 474.102,30.438 473.953,29.388 477.553,28.458 479.053,28.338 479.053,48.438 481.303,48.737 481.152,49.787 	"/>
	<path clip-path="url(#SVGID_2_)" fill="#333F48" d="M485.533,42.108c0,3.419,1.829,5.85,4.979,5.85c1.2,0,2.64-0.571,3.75-1.261
		l0.479,1.14c-1.439,0.99-3.33,1.831-5.25,2.371c-3.629,0-6.899-2.58-6.899-7.29c0-4.44,2.67-6.81,6.78-7.71
		c3.959,0,5.31,2.49,5.31,5.64v1.26H485.533z M491.562,40.608c0-2.31-0.45-3.9-2.76-3.9c-1.83,0-3,1.71-3.24,4.2L491.562,40.608z"/>
	<path clip-path="url(#SVGID_2_)" fill="#333F48" d="M509.832,45.857c0,1.29,0.15,1.77,0.36,2.25h1.5l0.119,1.05l-3.869,0.75
		l-0.84-2.43l-4.35,2.73c-3.96,0-4.62-1.41-4.62-4.89v-7.83l-2.1,0.15l-0.15-1.17l3.6-0.779l1.5-0.121v9.99
		c0,1.56,0.66,2.25,2.13,2.25c0.931,0,2.13-0.75,3.271-1.5l0.6-0.39v-8.43l-1.8,0.15l-0.15-1.17l3.3-0.779l1.5-0.121V45.857z"/>
	<path clip-path="url(#SVGID_2_)" fill="#333F48" d="M534.012,49.697l-2.85,0.09l-0.15-1.05l1.5-0.3v-8.579
		c0-1.56-0.66-2.25-1.74-2.25c-0.899,0-2.01,0.6-3.06,1.35l-0.899,0.63v8.849l1.35,0.3l-0.15,1.05l-2.55-0.09l-2.699,0.09
		l-0.15-1.05l1.35-0.3v-8.579c0-1.56-0.659-2.25-1.739-2.25c-0.9,0-2.011,0.6-3.061,1.35l-0.899,0.63v8.849l1.5,0.3l-0.15,1.05
		l-2.7-0.09l-3.449,0.09l-0.15-1.05l2.1-0.3V37.488l-2.1,0.18l-0.149-1.051l3.6-0.929l1.29-0.091l0.148,2.491l4.141-2.88
		c2.91,0,3.99,0.87,4.32,2.94l4.229-2.94c3.84,0,4.47,1.44,4.47,5.249v7.98l2.25,0.3l-0.149,1.05L534.012,49.697z"/>
	<path clip-path="url(#SVGID_2_)" fill="#333F48" d="M63.406,66.708c3.78,0,4.74,0.96,4.74,4.77v5.88c0,1.29,0.21,1.77,0.51,2.25
		h1.5l0.119,1.05l-3.869,0.75l-0.93-2.31l-3.57,2.61c-2.58,0-4.41-1.44-4.41-3.84c0-1.08,0.391-1.86,1.05-2.76l6.75-2.25v-1.5
		c0-1.8-0.149-2.88-1.771-2.88c-0.809,0-1.798,0.27-2.458,0.54l-0.51,2.37h-2.58v-2.28L63.406,66.708z M65.296,74.058l-4.351,1.8
		c-0.449,0.45-0.599,1.05-0.599,1.68c0,1.53,0.87,2.07,1.74,2.07c0.84,0,1.561-0.51,1.95-0.78l1.26-0.87V74.058z"/>
	<path clip-path="url(#SVGID_2_)" fill="#333F48" d="M75.076,81.197l-3.45,0.09l-0.15-1.05l2.1-0.3V68.988l-2.1,0.18l-0.15-1.051
		l3.6-0.929l1.29-0.091l0.15,2.52l4.439-2.909c3.84,0,4.47,1.29,4.47,4.889v8.34l2.28,0.3l-0.149,1.05l-3.451-0.09l-2.879,0.09
		l-0.15-1.05l1.5-0.3v-8.579c0-1.56-0.69-2.25-1.981-2.25c-1.049,0-2.099,0.659-3.119,1.35l-0.9,0.599v8.88l1.65,0.3l-0.15,1.05
		L75.076,81.197z"/>
	<path clip-path="url(#SVGID_2_)" fill="#333F48" d="M101.266,77.357c0,1.2,0.211,1.74,0.511,2.19h1.679l0.121,1.11l-4.02,0.75
		l-0.93-2.31l-3.871,2.61c-3.808,0-6.239-2.85-6.239-6.99c0-4.86,2.97-7.41,7.35-8.01c0.6,0,1.86,0.48,2.549,0.81v-5.669
		l-2.099,0.06l-0.151-1.02l3.6-0.931l1.5-0.119V77.357z M97.517,78.078l0.899-0.72v-7.95c-0.66-0.75-1.709-1.2-2.969-1.2
		c-2.4,0-3.93,2.19-3.93,5.73c0,3.33,1.319,5.37,3.12,5.37C95.447,79.308,96.467,78.917,97.517,78.078"/>
	<path clip-path="url(#SVGID_2_)" fill="#333F48" d="M123.076,81.797c-5.55,0-10.5-3.75-10.5-10.74c0-6.989,4.41-10.289,11.1-11.339
		c3.179,0,6.12,1.41,7.349,2.34v4.05h-1.5l-0.959-2.7c-0.871-0.93-2.701-2.13-5.31-2.13c-4.35,0-7.23,3.3-7.23,9.029
		c0,5.04,3.12,9.84,7.95,9.84c1.829,0,3.24-0.96,3.9-1.59v-5.7l-2.7-0.39l0.15-1.049l4.14,0.089l3.36-0.089l0.149,1.049l-1.95,0.39
		v6.6C129.496,80.058,125.836,81.347,123.076,81.797"/>
	<path clip-path="url(#SVGID_2_)" fill="#333F48" d="M137.717,73.608c0,3.419,1.83,5.85,4.979,5.85c1.2,0,2.64-0.571,3.75-1.261
		l0.48,1.14c-1.44,0.99-3.33,1.831-5.25,2.371c-3.629,0-6.9-2.58-6.9-7.29c0-4.44,2.67-6.81,6.781-7.71
		c3.959,0,5.309,2.49,5.309,5.64v1.26H137.717z M143.746,72.108c0-2.31-0.449-3.9-2.76-3.9c-1.83,0-3,1.71-3.24,4.2L143.746,72.108z
		"/>
	<path clip-path="url(#SVGID_2_)" fill="#333F48" d="M162.945,73.907c0,4.47-2.73,7.05-7.379,7.8c-3.99,0-6.69-3.09-6.69-7.17
		c0-4.5,2.729-7.05,7.379-7.829C160.247,66.708,162.945,69.827,162.945,73.907 M156.316,80.237c2.399,0,3.629-2.46,3.629-5.7
		c0-3.81-1.83-6.36-4.44-6.36c-2.429,0-3.629,2.46-3.629,5.73C151.876,77.327,153.646,80.237,156.316,80.237"/>
	<path clip-path="url(#SVGID_2_)" fill="#333F48" d="M172.995,68.838c-0.3-0.18-1.2-0.66-2.28-0.66c-1.17,0-2.28,0.63-2.28,1.77
		c0,0.96,0.75,1.56,2.1,2.25l2.311,1.17c2.009,1.02,2.819,2.159,2.819,3.869c0,2.701-2.191,3.721-5.64,4.471
		c-1.83,0-3.779-0.901-4.56-1.35l-0.57-3.391h1.92l1.021,2.491c0.629,0.42,1.5,0.75,2.459,0.75c1.59,0,2.4-1.02,2.4-2.281
		c0-1.17-0.63-1.679-2.189-2.489l-2.371-1.23c-1.289-0.66-2.52-1.8-2.52-3.48c0-2.1,1.95-3.27,5.43-4.02c1.62,0,3.36,0.72,4.23,1.35
		v3h-1.59L172.995,68.838z"/>
	<polygon clip-path="url(#SVGID_2_)" fill="#333F48" points="178.726,88.307 178.726,85.307 181.306,85.307 184.275,80.777 
		183.077,81.137 178.186,68.478 176.327,68.178 176.476,67.128 179.926,67.218 183.077,67.128 183.226,68.178 181.247,68.478 
		184.426,77.267 184.666,79.337 188.235,68.478 186.855,68.178 187.005,67.128 189.645,67.218 192.135,67.128 192.286,68.178 
		190.366,68.478 185.656,80.747 182.294,88.307 	"/>
	<path clip-path="url(#SVGID_2_)" fill="#333F48" d="M200.535,68.838c-0.3-0.18-1.199-0.66-2.279-0.66
		c-1.17,0-2.281,0.63-2.281,1.77c0,0.96,0.75,1.56,2.1,2.25l2.31,1.17c2.009,1.02,2.82,2.159,2.82,3.869
		c0,2.701-2.19,3.721-5.64,4.471c-1.83,0-3.78-0.901-4.559-1.35l-0.571-3.391h1.92l1.02,2.491c0.631,0.42,1.5,0.75,2.461,0.75
		c1.59,0,2.399-1.02,2.399-2.281c0-1.17-0.63-1.679-2.19-2.489l-2.369-1.23c-1.29-0.66-2.52-1.8-2.52-3.48
		c0-2.1,1.949-3.27,5.43-4.02c1.619,0,3.359,0.72,4.229,1.35v3h-1.591L200.535,68.838z"/>
	<path clip-path="url(#SVGID_2_)" fill="#333F48" d="M204.166,68.868v-0.51l1.05-1.05h1.95v-1.95l1.949-1.949h0.78v4.109h4.531v1.35
		h-4.5v8.79c0,0.87,0.33,1.8,1.59,1.8c0.869,0,1.529-0.3,2.369-0.72l0.51,1.02l-3.51,1.95c-3.36,0-3.809-1.2-3.809-3.9v-8.94
		H204.166z"/>
	<path clip-path="url(#SVGID_2_)" fill="#333F48" d="M217.786,73.608c0,3.419,1.83,5.85,4.98,5.85c1.199,0,2.639-0.571,3.749-1.261
		l0.481,1.14c-1.441,0.99-3.33,1.831-5.25,2.371c-3.63,0-6.9-2.58-6.9-7.29c0-4.44,2.67-6.81,6.78-7.71c3.96,0,5.31,2.49,5.31,5.64
		v1.26H217.786z M223.814,72.108c0-2.31-0.449-3.9-2.76-3.9c-1.83,0-3,1.71-3.239,4.2L223.814,72.108z"/>
	<path clip-path="url(#SVGID_2_)" fill="#333F48" d="M249.344,81.197l-2.85,0.09l-0.15-1.05l1.5-0.3v-8.579
		c0-1.56-0.66-2.25-1.74-2.25c-0.9,0-2.01,0.6-3.06,1.35l-0.899,0.63v8.849l1.349,0.3l-0.15,1.05l-2.55-0.09l-2.7,0.09l-0.149-1.05
		l1.35-0.3v-8.579c0-1.56-0.66-2.25-1.74-2.25c-0.9,0-2.01,0.6-3.061,1.35l-0.899,0.63v8.849l1.499,0.3l-0.149,1.05l-2.701-0.09
		l-3.449,0.09l-0.15-1.05l2.099-0.3V68.988l-2.099,0.18l-0.151-1.051l3.601-0.929l1.29-0.091l0.15,2.491l4.139-2.88
		c2.91,0,3.99,0.87,4.32,2.94l4.231-2.94c3.84,0,4.469,1.44,4.469,5.249v7.98l2.25,0.3l-0.15,1.05L249.344,81.197z"/>
	<path clip-path="url(#SVGID_2_)" fill="#333F48" d="M262.154,68.838c-0.3-0.18-1.199-0.66-2.279-0.66
		c-1.17,0-2.281,0.63-2.281,1.77c0,0.96,0.75,1.56,2.1,2.25l2.31,1.17c2.009,1.02,2.82,2.159,2.82,3.869
		c0,2.701-2.19,3.721-5.64,4.471c-1.83,0-3.78-0.901-4.559-1.35l-0.571-3.391h1.92l1.02,2.491c0.631,0.42,1.5,0.75,2.461,0.75
		c1.59,0,2.399-1.02,2.399-2.281c0-1.17-0.63-1.679-2.19-2.489l-2.369-1.23c-1.29-0.66-2.52-1.8-2.52-3.48
		c0-2.1,1.949-3.27,5.43-4.02c1.619,0,3.359,0.72,4.229,1.35v3h-1.591L262.154,68.838z"/>
	<polygon clip-path="url(#SVGID_2_)" fill="#333F48" points="290.233,60.228 290.533,65.628 289.513,65.628 287.834,61.728 
		279.883,61.638 279.883,69.618 284.084,69.498 285.283,66.348 286.334,66.348 286.033,70.098 286.334,74.147 285.283,74.147 
		284.084,70.998 279.883,70.878 279.883,79.877 288.133,79.788 290.144,75.737 291.283,75.737 290.233,81.287 278.324,81.197 
		274.184,81.287 274.034,80.237 276.734,79.847 276.734,61.668 274.034,61.278 274.184,60.228 278.324,60.318 	"/>
	<path clip-path="url(#SVGID_2_)" fill="#333F48" d="M296.234,81.197l-3.45,0.09l-0.151-1.05l2.101-0.3V68.988l-2.101,0.18
		l-0.149-1.051l3.6-0.929l1.289-0.091l0.15,2.52l4.44-2.909c3.839,0,4.47,1.29,4.47,4.889v8.34l2.28,0.3l-0.15,1.05l-3.45-0.09
		l-2.88,0.09l-0.149-1.05l1.5-0.3v-8.579c0-1.56-0.691-2.25-1.981-2.25c-1.05,0-2.099,0.659-3.119,1.35l-0.9,0.599v8.88l1.65,0.3
		l-0.15,1.05L296.234,81.197z"/>
	<path clip-path="url(#SVGID_2_)" fill="#333F48" d="M320.385,68.538l1.619-1.83h1.801v2.43h-1.801l-0.99,0.48
		c0.18,0.45,0.3,0.93,0.3,1.44c0,2.55-1.77,4.35-5.849,5.4c-0.42,0-0.811,0-1.17-0.06l-1.621,1.859c0,0.63,0.451,1.051,1.17,1.051
		h5.49c2.73,0,3.93,1.259,3.93,3.09c0,2.46-3.119,4.859-7.65,6.209c-4.349,0-6.54-1.35-6.54-4.14v-0.51l3.27-2.519
		c-2.1-0.781-2.249-1.741-2.249-3.121v-0.179l2.999-2.071c-1.889-0.659-3.119-2.099-3.119-3.959c0-2.55,1.74-4.35,5.849-5.4
		C317.774,66.708,319.424,67.398,320.385,68.538 M313.424,81.708c-1.529,1.679-1.65,2.219-1.65,2.639c0,1.41,1.621,2.49,4.08,2.49
		c2.46,0,4.56-1.59,4.56-3.6c0-1.08-0.81-1.529-2.85-1.529H313.424z M315.375,68.088c-1.621,0-2.551,1.26-2.551,3.18
		c0,1.44,0.631,3.779,3.09,3.779c1.62,0,2.551-1.109,2.551-2.849C318.465,70.638,317.834,68.088,315.375,68.088"/>
	<path clip-path="url(#SVGID_2_)" fill="#333F48" d="M328.604,81.197l-3.45,0.09l-0.151-1.05l2.101-0.3V68.988l-2.101,0.18
		l-0.149-1.05l3.601-0.93l1.499-0.12v12.869l2.25,0.3l-0.15,1.05L328.604,81.197z M327.104,60.558l2.159-0.15l0.841,0.15l0.149,1.68
		l-0.33,1.44l-2.129,0.18l-0.81-0.18l-0.18-1.68L327.104,60.558z"/>
	<path clip-path="url(#SVGID_2_)" fill="#333F48" d="M337.455,81.197l-3.45,0.09l-0.151-1.05l2.101-0.3V68.988l-2.101,0.18
		l-0.149-1.051l3.6-0.929l1.289-0.091l0.15,2.52l4.44-2.909c3.839,0,4.47,1.29,4.47,4.889v8.34l2.279,0.3l-0.149,1.05l-3.45-0.09
		l-2.88,0.09l-0.149-1.05l1.5-0.3v-8.579c0-1.56-0.69-2.25-1.98-2.25c-1.05,0-2.099,0.659-3.119,1.35l-0.9,0.599v8.88l1.65,0.3
		l-0.15,1.05L337.455,81.197z"/>
	<path clip-path="url(#SVGID_2_)" fill="#333F48" d="M353.835,73.608c0,3.419,1.83,5.85,4.979,5.85c1.2,0,2.641-0.571,3.75-1.261
		l0.48,1.14c-1.44,0.99-3.33,1.831-5.25,2.371c-3.63,0-6.899-2.58-6.899-7.29c0-4.44,2.67-6.81,6.779-7.71
		c3.96,0,5.31,2.49,5.31,5.64v1.26H353.835z M359.865,72.108c0-2.31-0.45-3.9-2.761-3.9c-1.829,0-2.999,1.71-3.239,4.2
		L359.865,72.108z"/>
	<path clip-path="url(#SVGID_2_)" fill="#333F48" d="M367.936,73.608c0,3.419,1.829,5.85,4.979,5.85c1.2,0,2.64-0.571,3.75-1.261
		l0.479,1.14c-1.439,0.99-3.33,1.831-5.25,2.371c-3.629,0-6.899-2.58-6.899-7.29c0-4.44,2.67-6.81,6.78-7.71
		c3.959,0,5.31,2.49,5.31,5.64v1.26H367.936z M373.965,72.108c0-2.31-0.45-3.9-2.76-3.9c-1.83,0-3,1.71-3.24,4.2L373.965,72.108z"/>
	<path clip-path="url(#SVGID_2_)" fill="#333F48" d="M383.505,71.058l3.42-4.2h2.399v3h-2.22c-0.72,0.15-2.04,1.14-2.85,2.13
		l-0.6,0.72v7.14l3.149,0.3l-0.15,1.139l-4.35-0.089l-3.359,0.089l-0.15-1.049l2.1-0.3v-10.95l-2.1,0.18l-0.149-1.05l3.6-0.93
		l1.2-0.09L383.505,71.058z"/>
	<path clip-path="url(#SVGID_2_)" fill="#333F48" d="M394.424,81.197l-3.449,0.09l-0.15-1.05l2.1-0.3V68.988l-2.1,0.18l-0.149-1.05
		l3.6-0.93l1.5-0.12v12.869l2.25,0.3l-0.15,1.05L394.424,81.197z M392.924,60.558l2.16-0.15l0.84,0.15l0.15,1.68l-0.33,1.44
		l-2.131,0.18l-0.809-0.18l-0.181-1.68L392.924,60.558z"/>
	<path clip-path="url(#SVGID_2_)" fill="#333F48" d="M403.273,81.197l-3.449,0.09l-0.15-1.05l2.1-0.3V68.988l-2.1,0.18l-0.149-1.051
		l3.6-0.929l1.29-0.091l0.149,2.52l4.439-2.909c3.841,0,4.471,1.29,4.471,4.889v8.34l2.278,0.3l-0.148,1.05l-3.45-0.09l-2.88,0.09
		l-0.149-1.05l1.499-0.3v-8.579c0-1.56-0.689-2.25-1.979-2.25c-1.05,0-2.1,0.659-3.12,1.35l-0.899,0.599v8.88l1.649,0.3l-0.149,1.05
		L403.273,81.197z"/>
	<path clip-path="url(#SVGID_2_)" fill="#333F48" d="M427.423,68.538l1.62-1.83h1.8v2.43h-1.8l-0.99,0.48
		c0.181,0.45,0.301,0.93,0.301,1.44c0,2.55-1.771,4.35-5.851,5.4c-0.42,0-0.81,0-1.17-0.06l-1.619,1.859
		c0,0.63,0.449,1.051,1.17,1.051h5.489c2.73,0,3.93,1.259,3.93,3.09c0,2.46-3.119,4.859-7.649,6.209c-4.35,0-6.54-1.35-6.54-4.14
		v-0.51l3.271-2.519c-2.101-0.781-2.25-1.741-2.25-3.121v-0.179l3-2.071c-1.891-0.659-3.12-2.099-3.12-3.959
		c0-2.55,1.74-4.35,5.85-5.4C424.813,66.708,426.463,67.398,427.423,68.538 M420.464,81.708c-1.53,1.679-1.65,2.219-1.65,2.639
		c0,1.41,1.62,2.49,4.079,2.49c2.461,0,4.561-1.59,4.561-3.6c0-1.08-0.811-1.529-2.85-1.529H420.464z M422.413,68.088
		c-1.62,0-2.55,1.26-2.55,3.18c0,1.44,0.63,3.779,3.09,3.779c1.62,0,2.55-1.109,2.55-2.849
		C425.503,70.638,424.873,68.088,422.413,68.088"/>
	<path clip-path="url(#SVGID_2_)" fill="#333F48" d="M63.197,105.618c-3.44,0-5.602-2.36-5.602-6.161
		c0-3.062,1.301-6.603,5.602-8.042l1.681-0.56c1.98,0,3.501,0.86,4.241,1.52l-0.1,2.881h-1.06l-0.42-1.94
		c-0.58-0.58-1.701-1.081-3.621-1.381c-2.721,1.181-4.121,3.741-4.121,7.122c0,3.602,1.961,5.381,4.26,5.521
		c1.001-0.381,1.561-0.7,2.201-1.261l1.18-2.381h1.101l-0.78,3.361L63.197,105.618z"/>
	<path clip-path="url(#SVGID_2_)" fill="#333F48" d="M78.058,99.537c0,2.439-1.4,4.661-3.861,5.561l-1.221,0.46
		c-1.72,0-3.259-1.399-3.259-3.98c0-2.44,1.4-4.661,3.86-5.562l1.22-0.46C76.517,95.556,78.058,96.956,78.058,99.537
		 M71.617,101.297c0,2.241,1.02,3.101,2.14,3.301c1.821-0.6,2.401-3.101,2.401-4.78c0-2.241-1.061-3.102-2.182-3.302
		C72.156,97.116,71.617,99.617,71.617,101.297"/>
	<path clip-path="url(#SVGID_2_)" fill="#333F48" d="M85.458,102.817l0.38,0.48c-0.6,0.479-1.641,1.18-2.58,1.76l-0.801,0.501
		c-1.78,0-3.301-1.361-3.301-3.881c0-2.481,1.461-4.642,4.081-5.683l1.101-0.439c0.519,0,1.58,0.381,2.16,0.72l-0.96,1.621
		c-0.7-0.5-1.601-0.96-2.241-1.241c-1.42,0.761-2.24,2.361-2.24,4.441c0,1.94,1,2.761,2.081,2.961
		C83.777,103.798,84.958,103.157,85.458,102.817"/>
	<path clip-path="url(#SVGID_2_)" fill="#333F48" d="M87.236,92.635l-0.221-0.6l3.522-1.101l0.48,0.461l-1.441,8.241l0.381-0.101
		l3.621-3.78h1.92l-0.401,1.86h-1.219c-0.681,0.18-1.201,0.46-1.88,1.021l-1.401,1.16l0.539,0.199l2.182,4.102l1.72-1.08l0.34,0.5
		l-2.841,2.041l-0.78-0.481l-2.281-4.94l-0.88,5.121h-1.7l2.301-13.163L87.236,92.635z"/>
	<path clip-path="url(#SVGID_2_)" fill="#333F48" d="M99.837,97.736l-0.64,2.16l2.68-4.141h1.602l-0.421,1.841h-0.88
		c-0.54,0.319-1.34,1.06-1.92,1.8l-0.781,1.001l-0.88,4.859h-1.7l1.48-8.32l-1.86,0.66l-0.22-0.561l3.28-1.48l0.521,0.54
		L99.837,97.736z"/>
	<path clip-path="url(#SVGID_2_)" fill="#333F48" d="M109.597,102.798l0.36,0.5c-0.5,0.419-1.64,1.24-2.6,1.8l-0.78,0.46
		c-1.96,0-3.301-1.5-3.301-3.681c0-2.521,1.44-4.941,4.001-5.901l1.12-0.42c1.261,0.221,2.2,0.74,2.2,2.101
		c0,0.46-0.12,1.02-0.359,1.721l-5.041,1.6c-0.021,0.181-0.021,0.36-0.021,0.521c0,1.78,1.121,2.561,2.061,2.581
		C107.938,103.777,108.918,103.257,109.597,102.798 M105.277,100.277l3.26-1.341c0.14-0.439,0.2-0.74,0.2-1.08
		c0-0.9-0.48-1.24-1.08-1.341C106.216,97.116,105.537,98.696,105.277,100.277"/>
	<polygon clip-path="url(#SVGID_2_)" fill="#333F48" points="111.816,92.675 111.576,92.055 115.097,90.954 115.577,91.416 
		113.356,104.058 115.018,103.018 115.357,103.518 112.517,105.559 111.497,104.918 113.756,92.134 	"/>
	<polygon clip-path="url(#SVGID_2_)" fill="#333F48" points="117.196,92.675 116.956,92.055 120.476,90.954 120.958,91.416 
		118.736,104.058 120.396,103.018 120.736,103.518 117.896,105.559 116.876,104.918 119.136,92.134 	"/>
	<path clip-path="url(#SVGID_2_)" fill="#333F48" d="M136.018,94.756h-1.08l-0.1-1.84c-0.541-0.48-1.58-1.06-2.64-1.06
		c-1.461,0.46-2.101,1.2-2.101,2.2c0,1.18,0.739,1.841,1.58,2.48l1.82,1.4c0.921,0.7,1.861,1.64,1.861,3.44
		c0,1.62-1.061,2.9-2.801,3.521l-2.04,0.719c-1.86,0-3.36-0.58-4.261-1.26l0.481-2.8h1.279v1.66c0.541,0.64,1.9,1.46,3.081,1.46
		c1.501-0.4,2.161-1.38,2.161-2.601c0-1.381-0.64-1.98-1.56-2.681l-2.041-1.58c-0.96-0.74-1.641-1.601-1.641-2.961
		c0-1.48,1.021-2.58,2.981-3.301l1.82-0.66c1.801,0,3.002,0.501,3.681,1.041L136.018,94.756z"/>
	<path clip-path="url(#SVGID_2_)" fill="#333F48" d="M142.896,102.817l0.381,0.48c-0.601,0.479-1.641,1.18-2.581,1.76l-0.8,0.501
		c-1.781,0-3.301-1.361-3.301-3.881c0-2.481,1.46-4.642,4.08-5.683l1.102-0.439c0.519,0,1.58,0.381,2.16,0.72l-0.961,1.621
		c-0.699-0.5-1.6-0.96-2.24-1.241c-1.42,0.761-2.24,2.361-2.24,4.441c0,1.94,1,2.761,2.08,2.961
		C141.216,103.798,142.396,103.157,142.896,102.817"/>
	<path clip-path="url(#SVGID_2_)" fill="#333F48" d="M146.035,105.258h-1.699l2.32-13.123l-1.941,0.54l-0.241-0.62l3.522-1.1
		l0.48,0.46l-1,5.721l-0.3,0.621l3.421-2.201c1.6,0,2.139,1.08,1.94,2.241l-1.12,6.261l1.66-1.04l0.34,0.5l-2.841,2.04l-1.02-0.64
		l1.141-6.421c0.139-0.761,0.06-1.341-0.641-1.341c-0.58,0-1.36,0.42-1.88,0.779l-0.96,0.66L146.035,105.258z"/>
	<path clip-path="url(#SVGID_2_)" fill="#333F48" d="M162.656,99.537c0,2.439-1.4,4.661-3.86,5.561l-1.22,0.46
		c-1.72,0-3.261-1.399-3.261-3.98c0-2.44,1.4-4.661,3.861-5.562l1.221-0.46C161.116,95.556,162.656,96.956,162.656,99.537
		 M156.215,101.297c0,2.241,1.021,3.101,2.141,3.301c1.82-0.6,2.4-3.101,2.4-4.78c0-2.241-1.061-3.102-2.18-3.302
		C156.756,97.116,156.215,99.617,156.215,101.297"/>
	<path clip-path="url(#SVGID_2_)" fill="#333F48" d="M172.097,99.537c0,2.439-1.4,4.661-3.861,5.561l-1.221,0.46
		c-1.72,0-3.259-1.399-3.259-3.98c0-2.44,1.4-4.661,3.86-5.562l1.22-0.46C170.556,95.556,172.097,96.956,172.097,99.537
		 M165.656,101.297c0,2.241,1.02,3.101,2.14,3.301c1.821-0.6,2.401-3.101,2.401-4.78c0-2.241-1.061-3.102-2.182-3.302
		C166.195,97.116,165.656,99.617,165.656,101.297"/>
	<polygon clip-path="url(#SVGID_2_)" fill="#333F48" points="173.315,92.675 173.075,92.055 176.595,90.954 177.076,91.416 
		174.855,104.058 176.516,103.018 176.855,103.518 174.016,105.559 172.996,104.918 175.255,92.134 	"/>
	<path clip-path="url(#SVGID_2_)" fill="#333F48" d="M191.216,99.537c0,2.439-1.4,4.661-3.861,5.561l-1.22,0.46
		c-1.72,0-3.26-1.399-3.26-3.98c0-2.44,1.4-4.661,3.861-5.562l1.22-0.46C189.675,95.556,191.216,96.956,191.216,99.537
		 M184.775,101.297c0,2.241,1.02,3.101,2.141,3.301c1.82-0.6,2.4-3.101,2.4-4.78c0-2.241-1.061-3.102-2.181-3.302
		C185.315,97.116,184.775,99.617,184.775,101.297"/>
	<path clip-path="url(#SVGID_2_)" fill="#333F48" d="M191.575,108.318c0.44-0.479,0.74-1.18,0.82-1.66l1.681-9.602h-1.941l0.1-0.361
		l0.74-0.66h1.281l0.179-1.08c0.18-1.06,0.561-1.92,1.301-2.399l2.54-1.601h1.641l-0.321,1.581h-2.48c-0.46,0.44-0.78,1.2-0.86,1.72
		l-0.321,1.84h2.262l-0.221,0.961h-2.22l-1.54,8.901c-0.181,1-0.601,1.94-1.321,2.4l-2.48,1.601h-1.401l0.34-1.641H191.575z"/>
	<polygon clip-path="url(#SVGID_2_)" fill="#333F48" points="214.717,91.235 214.717,94.656 214.037,94.656 213.157,92.235 
		208.176,92.175 207.336,97.496 210.137,97.416 211.357,95.315 211.957,95.315 211.257,97.936 211.076,100.517 210.477,100.517 
		209.996,98.417 207.196,98.337 206.236,104.338 211.656,104.278 213.197,101.577 213.957,101.577 213.098,105.278 205.155,105.218 
		202.414,105.278 202.414,104.578 204.235,104.318 206.176,92.175 204.415,91.915 204.615,91.235 207.376,91.295 	"/>
	<path clip-path="url(#SVGID_2_)" fill="#333F48" d="M222.076,98.497c0.141-0.761,0.061-1.341-0.641-1.341
		c-0.58,0-1.359,0.42-1.88,0.779l-0.959,0.661l-1.181,6.661h-1.7l1.48-8.322l-1.86,0.661l-0.22-0.561l3.28-1.48l0.62,0.64
		l-0.179,0.961l-0.281,0.601l3.421-2.201c1.6,0,2.141,1.08,1.94,2.241l-1.119,6.261l1.66-1.04l0.34,0.5l-2.841,2.041l-1.021-0.641
		L222.076,98.497z"/>
	<path clip-path="url(#SVGID_2_)" fill="#333F48" d="M225.395,109.959l0.28-1.641h3.681c0.62-0.42,1.28-1.44,1.461-2.581l0.319-2
		l0.341-0.859l-2.842,2.68c-1.38-0.26-2.699-1.18-2.699-3.801c0-2.38,1.08-4.521,3.48-5.602l1.34-0.6c0.78,0,2.32,0.36,3.401,0.94
		l-1.741,9.683c-0.16,0.859-0.98,1.56-2.2,2.479l-1.74,1.301H225.395z M229.136,104.058l2.28-1.84l0.881-4.802
		c-0.521-0.4-1.661-0.7-2.521-0.7c-1.241,0.881-1.94,2.82-1.94,4.661C227.836,102.938,228.455,103.737,229.136,104.058"/>
	<path clip-path="url(#SVGID_2_)" fill="#333F48" d="M235.475,97.596l-0.22-0.56l3.28-1.48l0.621,0.641l-1.381,7.862l1.661-1.041
		l0.339,0.5l-2.839,2.041l-1.021-0.641l1.421-7.981L235.475,97.596z M238.295,91.495l0.58-0.1l1.121,0.1v0.96l-0.34,0.86l-0.541,0.1
		l-1.259-0.1l0.08-1L238.295,91.495z"/>
	<path clip-path="url(#SVGID_2_)" fill="#333F48" d="M247.856,98.497c0.14-0.761,0.06-1.341-0.64-1.341
		c-0.58,0-1.361,0.42-1.881,0.779l-0.96,0.661l-1.18,6.661h-1.7l1.48-8.322l-1.86,0.661l-0.221-0.561l3.281-1.48l0.62,0.64
		l-0.18,0.961l-0.28,0.601l3.42-2.201c1.602,0,2.141,1.08,1.942,2.241l-1.121,6.261l1.66-1.04l0.341,0.5l-2.841,2.041l-1.02-0.641
		L247.856,98.497z"/>
	<path clip-path="url(#SVGID_2_)" fill="#333F48" d="M257.796,102.798l0.36,0.5c-0.5,0.419-1.641,1.24-2.601,1.8l-0.78,0.46
		c-1.96,0-3.301-1.5-3.301-3.681c0-2.521,1.44-4.941,4.001-5.901l1.12-0.42c1.261,0.221,2.201,0.74,2.201,2.101
		c0,0.46-0.12,1.02-0.36,1.721l-5.041,1.6c-0.021,0.181-0.021,0.36-0.021,0.521c0,1.78,1.122,2.561,2.061,2.581
		C256.136,103.777,257.117,103.257,257.796,102.798 M253.476,100.277l3.261-1.341c0.139-0.439,0.199-0.74,0.199-1.08
		c0-0.9-0.48-1.24-1.08-1.341C254.416,97.116,253.735,98.696,253.476,100.277"/>
	<path clip-path="url(#SVGID_2_)" fill="#333F48" d="M266.216,102.798l0.36,0.5c-0.5,0.419-1.64,1.24-2.6,1.8l-0.78,0.46
		c-1.96,0-3.301-1.5-3.301-3.681c0-2.521,1.44-4.941,4.001-5.901l1.12-0.42c1.261,0.221,2.2,0.74,2.2,2.101
		c0,0.46-0.12,1.02-0.359,1.721l-5.041,1.6c-0.021,0.181-0.021,0.36-0.021,0.521c0,1.78,1.121,2.561,2.061,2.581
		C264.557,103.777,265.538,103.257,266.216,102.798 M261.896,100.277l3.26-1.341c0.14-0.439,0.2-0.74,0.2-1.08
		c0-0.9-0.48-1.24-1.08-1.341C262.835,97.116,262.156,98.696,261.896,100.277"/>
	<path clip-path="url(#SVGID_2_)" fill="#333F48" d="M271.656,97.736l-0.641,2.16l2.681-4.141h1.601l-0.42,1.841h-0.881
		c-0.539,0.319-1.34,1.06-1.92,1.8l-0.78,1.001l-0.88,4.859h-1.701l1.48-8.32l-1.859,0.66l-0.221-0.561l3.281-1.48l0.52,0.54
		L271.656,97.736z"/>
	<path clip-path="url(#SVGID_2_)" fill="#333F48" d="M276.016,97.596l-0.221-0.56l3.281-1.48l0.619,0.641l-1.38,7.862l1.661-1.041
		l0.34,0.5l-2.841,2.041l-1.02-0.641l1.42-7.981L276.016,97.596z M278.836,91.495l0.58-0.1l1.12,0.1v0.96l-0.341,0.86l-0.539,0.1
		l-1.26-0.1l0.08-1L278.836,91.495z"/>
	<path clip-path="url(#SVGID_2_)" fill="#333F48" d="M288.396,98.497c0.141-0.761,0.061-1.341-0.641-1.341
		c-0.58,0-1.359,0.42-1.88,0.779l-0.959,0.661l-1.181,6.661h-1.7l1.48-8.322l-1.86,0.661l-0.22-0.561l3.28-1.48l0.62,0.64
		l-0.179,0.961l-0.281,0.601l3.421-2.201c1.6,0,2.141,1.08,1.94,2.241l-1.119,6.261l1.66-1.04l0.34,0.5l-2.841,2.041l-1.021-0.641
		L288.396,98.497z"/>
	<path clip-path="url(#SVGID_2_)" fill="#333F48" d="M291.715,109.959l0.279-1.641h3.682c0.619-0.42,1.279-1.44,1.46-2.581l0.319-2
		l0.341-0.859l-2.841,2.68c-1.381-0.26-2.7-1.18-2.7-3.801c0-2.38,1.08-4.521,3.48-5.602l1.341-0.6c0.779,0,2.32,0.36,3.4,0.94
		l-1.74,9.683c-0.16,0.859-0.98,1.56-2.201,2.479l-1.74,1.301H291.715z M295.455,104.058l2.281-1.84l0.88-4.802
		c-0.52-0.4-1.661-0.7-2.52-0.7c-1.241,0.881-1.941,2.82-1.941,4.661C294.155,102.938,294.775,103.737,295.455,104.058"/>
	<rect x="22.926" y="21.021" clip-path="url(#SVGID_2_)" fill="#BE5927" width="0.046" height="0.016"/>
	<path clip-path="url(#SVGID_2_)" fill="#BE5927" d="M28.375,16.495c-1.138-0.174-2.215-0.34-3.189-0.34
		c-0.522,0-0.978,0.05-1.386,0.149l-0.228-6.358V8.891c0.45-0.188,0.995-0.276,1.686-0.276c0.889,0,1.904,0.149,2.98,0.307
		c0.946,0.139,1.918,0.276,2.917,0.34l0.271,7.601C30.403,16.806,29.375,16.651,28.375,16.495 M17.524,16.495
		c-1.001,0.156-2.03,0.311-3.053,0.368l0.273-7.601c0.998-0.064,1.97-0.201,2.916-0.34c1.076-0.158,2.092-0.307,2.981-0.307
		c0.691,0,1.236,0.088,1.684,0.276v1.055l-0.227,6.358c-0.408-0.099-0.863-0.149-1.387-0.149
		C19.738,16.155,18.662,16.321,17.524,16.495 M33.676,12.01v-1.445h-0.891V8.097h-0.603c-1.275,0-2.542-0.187-3.77-0.366
		c-1.119-0.164-2.177-0.321-3.154-0.321c-0.919,0-1.678,0.145-2.309,0.442c-0.63-0.297-1.39-0.442-2.308-0.442
		c-0.977,0-2.035,0.157-3.155,0.321c-1.227,0.179-2.496,0.366-3.771,0.366h-0.601v2.468h-0.892v1.445h0.892v1.957h-0.881v1.445
		h0.881v2.68h0.601c1.363,0,2.699-0.207,3.992-0.406c1.092-0.168,2.123-0.328,3.004-0.328c0.711,0,1.244,0.103,1.657,0.318v0.001
		h1.162v-0.001c0.413-0.215,0.947-0.318,1.656-0.318c0.883,0,1.914,0.16,3.006,0.328c1.292,0.199,2.63,0.406,3.99,0.406h0.603v-2.68
		h0.881v-1.445h-0.881V12.01H33.676z"/>
	<path clip-path="url(#SVGID_2_)" fill="#BE5927" d="M17.688,10.014c-0.06,0.009-0.118,0.018-0.178,0.026
		c-0.566,0.083-1.141,0.167-1.722,0.234l-0.034,0.974c0.643-0.07,1.274-0.163,1.896-0.255c0.013-0.002,0.025-0.003,0.038-0.006
		V10.014z"/>
	<path clip-path="url(#SVGID_2_)" fill="#BE5927" d="M18.41,9.911v0.973c1.025-0.143,1.965-0.245,2.781-0.178l0.033-0.96
		C20.355,9.681,19.402,9.776,18.41,9.911"/>
	<path clip-path="url(#SVGID_2_)" fill="#BE5927" d="M17.688,14.423c-0.06,0.009-0.118,0.018-0.178,0.026
		c-0.618,0.091-1.246,0.183-1.881,0.252l-0.035,0.973c0.698-0.073,1.383-0.173,2.056-0.272l0.038-0.005V14.423z"/>
	<path clip-path="url(#SVGID_2_)" fill="#BE5927" d="M18.41,14.32v0.973c0.959-0.133,1.846-0.232,2.623-0.189l0.033-0.959
		C20.24,14.103,19.343,14.193,18.41,14.32"/>
	<path clip-path="url(#SVGID_2_)" fill="#BE5927" d="M17.538,12.24v0.975l0.111-0.018c1.288-0.187,2.466-0.361,3.462-0.295
		l0.034-0.957C20.043,11.877,18.812,12.053,17.538,12.24"/>
	<path clip-path="url(#SVGID_2_)" fill="#BE5927" d="M16.815,12.344c-0.366,0.053-0.735,0.102-1.107,0.145l-0.036,0.972
		c0.386-0.041,0.767-0.092,1.143-0.143V12.344z"/>
	<path clip-path="url(#SVGID_2_)" fill="#BE5927" d="M27.049,9.854c-0.834-0.103-1.637-0.164-2.376-0.108l0.034,0.96
		c0.697-0.057,1.487,0.009,2.342,0.119V9.854z"/>
	<path clip-path="url(#SVGID_2_)" fill="#BE5927" d="M30.11,10.273c-0.581-0.066-1.156-0.15-1.723-0.233
		c-0.207-0.031-0.413-0.061-0.616-0.089v0.972c0.156,0.023,0.317,0.045,0.477,0.07c0.622,0.092,1.254,0.184,1.897,0.255
		L30.11,10.273z"/>
	<path clip-path="url(#SVGID_2_)" fill="#BE5927" d="M26.85,12.035c-0.732-0.083-1.439-0.131-2.098-0.09l0.035,0.957
		c0.623-0.041,1.315,0.01,2.063,0.102V12.035z"/>
	<path clip-path="url(#SVGID_2_)" fill="#BE5927" d="M30.189,12.488c-0.607-0.068-1.21-0.156-1.802-0.244
		c-0.274-0.039-0.546-0.079-0.815-0.117v0.972c0.221,0.032,0.447,0.065,0.676,0.098c0.647,0.096,1.306,0.191,1.976,0.264
		L30.189,12.488z"/>
	<path clip-path="url(#SVGID_2_)" fill="#BE5927" d="M28.295,15.409c0.657,0.097,1.327,0.193,2.009,0.265l-0.034-0.973
		c-0.636-0.069-1.264-0.161-1.882-0.252c-0.031-0.005-0.062-0.009-0.093-0.014V15.409z"/>
	<path clip-path="url(#SVGID_2_)" fill="#BE5927" d="M27.572,14.332c-0.963-0.133-1.89-0.23-2.742-0.187l0.035,0.959
		c0.801-0.043,1.715,0.061,2.707,0.202V14.332z"/>
	<path clip-path="url(#SVGID_2_)" fill="#BE5927" d="M21.695,29.882l1.254-3.134l1.254,3.134l3.37,0.225l-2.595,2.162l0.828,3.272
		l-2.857-1.8l-2.858,1.8l0.83-3.272l-2.595-2.162L21.695,29.882z M14.061,28.771L14.061,28.771l5.445,3.96l-2.097,6.451
		c0.002,0.012,0.007,0.025,0.017,0.032c0.01,0.008,0.022,0.008,0.033,0.008l5.491-3.992l5.488,3.989
		c0.012,0.003,0.024,0,0.033-0.005c0.018-0.014,0.022-0.038,0.012-0.058l-2.088-6.427l5.443-3.956V28.77
		c0.026-0.009,0.041-0.034,0.034-0.06c-0.008-0.023-0.036-0.036-0.063-0.028V28.68h-6.73l-2.08-6.402h-0.003
		c0-0.028-0.021-0.05-0.046-0.05c-0.026,0-0.046,0.022-0.046,0.05H22.9l-2.078,6.402h-6.733l-0.002,0.004
		c-0.025-0.009-0.052,0.004-0.06,0.028C14.02,28.735,14.034,28.762,14.061,28.771"/>
	<path clip-path="url(#SVGID_2_)" fill="#BE5927" d="M36.465,36.862c-0.49,0.542-1.128,0.918-1.832,1.088
		c0.1-0.721,0.41-1.394,0.9-1.934c0.496-0.545,1.133-0.923,1.834-1.09C37.268,35.645,36.957,36.32,36.465,36.862 M33.83,32.627
		c-0.093-0.729,0.033-1.459,0.36-2.107c0.482,0.542,0.791,1.214,0.886,1.943c0.097,0.724-0.03,1.455-0.357,2.102
		C34.237,34.024,33.926,33.351,33.83,32.627 M35.289,27.115c-0.136-0.722-0.053-1.459,0.233-2.125c0.512,0.512,0.862,1.166,1,1.887
		c0.14,0.719,0.058,1.455-0.231,2.123C35.778,28.486,35.428,27.833,35.289,27.115 M38.768,28.724
		c0.051,0.725-0.115,1.448-0.485,2.081c-0.367,0.632-0.912,1.132-1.567,1.445c-0.051-0.727,0.114-1.449,0.482-2.082
		C37.57,29.533,38.115,29.035,38.768,28.724 M33.434,42.412c-0.592,0.43-1.287,0.664-2.017,0.688
		c0.246-0.688,0.689-1.282,1.282-1.709c0.594-0.432,1.291-0.666,2.02-0.686C34.471,41.389,34.028,41.982,33.434,42.412
		 M31.731,37.725c0.06-0.734,0.334-1.42,0.787-1.987c0.359,0.628,0.523,1.351,0.467,2.082c-0.057,0.731-0.331,1.421-0.786,1.987
		C31.84,39.176,31.674,38.455,31.731,37.725 M29.83,42.633c-0.205,0.701-0.616,1.318-1.177,1.779
		c-0.223-0.689-0.235-1.43-0.029-2.133c0.209-0.705,0.621-1.322,1.181-1.78C30.027,41.186,30.037,41.928,29.83,42.633
		 M30.932,45.811c-0.383,0.618-0.94,1.109-1.611,1.406c-0.464,0.208-0.958,0.313-1.465,0.313c-0.219,0-0.436-0.018-0.649-0.058
		c0.383-0.619,0.939-1.107,1.608-1.406C29.484,45.768,30.221,45.682,30.932,45.811 M24.643,46.096
		c0.351-0.649,0.881-1.168,1.523-1.5c0.074,0.718-0.066,1.445-0.416,2.092c-0.345,0.645-0.874,1.165-1.519,1.5
		C24.156,47.467,24.297,46.739,24.643,46.096 M16.506,47.217c-0.669-0.297-1.226-0.788-1.609-1.406
		c0.711-0.129,1.447-0.043,2.118,0.255c0.668,0.299,1.224,0.787,1.607,1.406C17.91,47.603,17.173,47.515,16.506,47.217
		 M15.998,42.631c-0.207-0.703-0.195-1.445,0.027-2.132c0.558,0.458,0.97,1.073,1.179,1.778c0.206,0.705,0.195,1.446-0.028,2.135
		C16.614,43.951,16.203,43.334,15.998,42.631 M19.662,44.596c0.643,0.332,1.172,0.851,1.522,1.496
		c0.347,0.647,0.488,1.375,0.414,2.096c-0.645-0.335-1.174-0.855-1.52-1.5C19.729,46.041,19.588,45.314,19.662,44.596
		 M12.395,42.412c-0.594-0.43-1.037-1.023-1.284-1.707c0.728,0.02,1.424,0.254,2.018,0.686c0.594,0.427,1.037,1.021,1.283,1.709
		C13.682,43.076,12.987,42.842,12.395,42.412 M13.311,35.738c0.453,0.567,0.726,1.253,0.787,1.986
		c0.057,0.731-0.11,1.452-0.469,2.083c-0.455-0.566-0.728-1.256-0.785-1.988C12.787,37.089,12.951,36.366,13.311,35.738
		 M9.363,36.862c-0.49-0.542-0.802-1.217-0.902-1.936c0.702,0.167,1.34,0.545,1.833,1.09c0.491,0.54,0.803,1.213,0.902,1.934
		C10.491,37.78,9.854,37.404,9.363,36.862 M9.113,32.25c-0.654-0.313-1.201-0.813-1.568-1.445c-0.369-0.633-0.535-1.356-0.484-2.081
		c0.652,0.311,1.199,0.809,1.57,1.444C8.998,30.801,9.164,31.523,9.113,32.25 M9.306,26.875c0.139-0.721,0.489-1.373,1.001-1.885
		c0.287,0.666,0.369,1.403,0.232,2.123c-0.138,0.72-0.488,1.373-1.002,1.887C9.248,28.332,9.166,27.596,9.306,26.875 M10.752,32.461
		c0.096-0.727,0.405-1.399,0.887-1.941c0.326,0.648,0.453,1.378,0.359,2.105c-0.095,0.726-0.405,1.399-0.887,1.94
		C10.782,33.918,10.656,33.187,10.752,32.461 M36.467,33.374c1.123-0.338,2.064-1.077,2.65-2.085
		c0.586-1.006,0.768-2.191,0.51-3.335l-0.113-0.503l-0.494,0.148c-0.569,0.169-1.092,0.443-1.545,0.803
		c0.105-0.559,0.104-1.138-0.006-1.707c-0.221-1.148-0.863-2.16-1.81-2.849l-0.417-0.305l-0.274,0.437
		c-0.621,0.989-0.843,2.168-0.625,3.318c0.22,1.14,0.858,2.145,1.796,2.837c-0.174,0.392-0.292,0.804-0.35,1.226
		c-0.278-0.761-0.753-1.445-1.392-1.972l-0.399-0.33l-0.301,0.42c-0.677,0.949-0.97,2.113-0.822,3.273
		c0.153,1.155,0.733,2.206,1.637,2.953l0.021,0.015c-0.265,0.36-0.474,0.754-0.625,1.172c-0.113-0.804-0.437-1.57-0.955-2.219
		l-0.32-0.405l-0.381,0.35c-0.861,0.789-1.387,1.865-1.48,3.033c-0.092,1.162,0.261,2.306,0.99,3.224l0.018,0.023
		c-0.334,0.295-0.62,0.639-0.853,1.016c0.055-0.812-0.103-1.629-0.475-2.371l-0.231-0.461l-0.444,0.265
		c-1.006,0.594-1.744,1.54-2.076,2.661c-0.328,1.121-0.22,2.312,0.303,3.361l0.014,0.026c-0.389,0.22-0.739,0.496-1.045,0.818
		c0.221-0.783,0.234-1.615,0.023-2.416l-0.131-0.5l-0.488,0.164c-1.106,0.375-2.022,1.148-2.581,2.178
		c-0.534,0.993-0.68,2.142-0.419,3.239c-0.147,0.102-0.302,0.207-0.463,0.316c-0.16-0.109-0.315-0.214-0.463-0.316
		c0.261-1.097,0.117-2.246-0.42-3.241c-0.556-1.028-1.472-1.801-2.58-2.176l-0.488-0.164l-0.131,0.5
		c-0.211,0.801-0.197,1.633,0.024,2.416c-0.306-0.322-0.656-0.598-1.044-0.818l0.012-0.026c0.525-1.049,0.632-2.24,0.304-3.361
		c-0.333-1.121-1.07-2.067-2.076-2.661l-0.443-0.265l-0.232,0.461c-0.373,0.742-0.529,1.559-0.474,2.371
		c-0.235-0.379-0.52-0.721-0.854-1.016l0.018-0.023c0.73-0.918,1.082-2.062,0.99-3.227c-0.094-1.165-0.619-2.241-1.481-3.03
		l-0.38-0.35l-0.321,0.405c-0.517,0.649-0.841,1.415-0.955,2.219c-0.149-0.418-0.358-0.812-0.624-1.172l0.022-0.015
		c0.903-0.747,1.484-1.798,1.635-2.953c0.15-1.16-0.142-2.324-0.822-3.273l-0.301-0.42l-0.397,0.33
		c-0.641,0.527-1.115,1.211-1.393,1.974c-0.057-0.424-0.175-0.836-0.35-1.228c0.938-0.692,1.576-1.697,1.796-2.838
		c0.217-1.15-0.004-2.328-0.625-3.317l-0.275-0.437l-0.417,0.305c-0.946,0.689-1.589,1.701-1.809,2.847
		c-0.11,0.571-0.112,1.149-0.006,1.709c-0.453-0.36-0.977-0.634-1.544-0.803l-0.494-0.148l-0.114,0.503
		c-0.257,1.144-0.077,2.329,0.509,3.335c0.586,1.008,1.527,1.747,2.651,2.085l0.435,0.13c0.045,0.366,0.137,0.726,0.269,1.074
		c-0.622-0.398-1.333-0.641-2.083-0.701l-0.514-0.042l-0.008,0.517c-0.015,1.171,0.406,2.292,1.188,3.155
		c0.781,0.865,1.855,1.394,3.023,1.492l0.453,0.038c0.119,0.351,0.283,0.684,0.485,0.993c-0.508-0.19-1.045-0.29-1.598-0.29
		c-0.195,0-0.392,0.013-0.585,0.035l-0.512,0.067l0.1,0.504c0.227,1.152,0.871,2.162,1.814,2.847
		c0.784,0.571,1.716,0.871,2.691,0.871c0.191,0,0.385-0.011,0.574-0.035l0.451-0.058c0.192,0.318,0.419,0.609,0.682,0.873
		c-0.732-0.11-1.483-0.045-2.19,0.201l-0.488,0.17l0.203,0.474c0.459,1.078,1.299,1.934,2.361,2.408
		c0.591,0.263,1.216,0.396,1.86,0.396c0.514,0,1.021-0.086,1.51-0.254l0.359-0.125c0.6,0.51,1.277,1.018,2.209,1.656
		c-0.426,0.28-0.895,0.586-1.42,0.922l0.905,0.563c0.512-0.33,0.965-0.627,1.378-0.902c0.413,0.275,0.866,0.572,1.378,0.902
		l0.905-0.563c-0.524-0.336-0.994-0.642-1.418-0.922c0.93-0.638,1.608-1.146,2.208-1.656l0.361,0.125
		c0.488,0.168,0.994,0.254,1.508,0.254c0.644,0,1.269-0.133,1.859-0.394c1.065-0.476,1.902-1.332,2.361-2.41l0.204-0.474
		l-0.489-0.17c-0.707-0.246-1.458-0.311-2.188-0.199c0.261-0.264,0.49-0.557,0.68-0.875l0.452,0.058
		c0.19,0.024,0.382,0.035,0.574,0.035h0.002c0.972,0,1.904-0.3,2.689-0.871c0.943-0.685,1.587-1.695,1.814-2.847l0.099-0.504
		l-0.511-0.067c-0.194-0.022-0.391-0.035-0.585-0.035c-0.552,0-1.09,0.1-1.598,0.29c0.201-0.309,0.365-0.642,0.486-0.993
		l0.451-0.038c1.169-0.098,2.243-0.627,3.023-1.492c0.782-0.863,1.204-1.984,1.188-3.155l-0.007-0.517l-0.514,0.042
		c-0.749,0.06-1.461,0.303-2.083,0.701c0.133-0.348,0.224-0.708,0.269-1.074L36.467,33.374z"/>
	<path clip-path="url(#SVGID_2_)" fill="#BE5927" d="M36.591,43.555c-0.981,1.436-2.104,2.768-3.458,4.064
		c-4.178,3.837-8.867,5.956-10.188,6.506c-1.322-0.55-6.011-2.669-10.189-6.506c-1.353-1.296-2.476-2.628-3.458-4.064
		c-4.744-6.946-5.366-15.002-5.37-21.261l0.005-0.001l19.017-1.056l19.012,1.055C41.957,28.552,41.334,36.608,36.591,43.555
		 M4.941,6.128C8.477,5.738,16.425,4.946,22.95,4.946c6.523,0,14.47,0.792,18.006,1.183l0.99,13.93H22.95H3.953L4.941,6.128z
		 M43.891,4.519l-0.844-0.106C42.935,4.398,31.703,3,22.955,3H22.95h-0.007C14.196,3,2.965,4.398,2.852,4.413L2.008,4.519v15.54H2
		v2.169c0,6.546,0.649,15.008,5.707,22.415c1.043,1.525,2.228,2.933,3.647,4.302l-0.001,0.002c0.01,0.008,0.018,0.015,0.028,0.023
		c2.744,2.641,6.371,5.132,11.559,8.023V57c0.002-0.003,0.003-0.003,0.005-0.003c0.002,0,0.003,0,0.005,0.003v-0.007
		c5.187-2.891,8.814-5.382,11.558-8.023c0.01-0.008,0.019-0.015,0.028-0.023v-0.002c1.418-1.369,2.603-2.777,3.646-4.302
		c5.059-7.407,5.707-15.869,5.707-22.415v-0.309l0.002-0.001V4.519z"/>
	<path clip-path="url(#SVGID_2_)" fill="#BE5927" d="M73.94,20.074l-1.88,0.06l-0.1-0.7l0.979-0.2v-5.722
		c0-1.04-0.479-1.5-1.279-1.5c-0.601,0-1.381,0.44-2.121,0.9l-0.6,0.381v5.941l1.1,0.2l-0.1,0.7l-1.9-0.06l-2.101,0.06l-0.101-0.7
		l1.202-0.2V6.991l-0.721,0.12l-4.061-0.06v12.123l2.301,0.26l-0.1,0.7l-3.241-0.06l-3.36,0.06l-0.101-0.7l2.401-0.26V7.051
		l-3.001,0.06l-0.92,2.501h-0.779V6.071l5.74,0.04l4.922-0.04l2.14-0.24h0.68v6.481l2.92-1.9c2.56,0,2.98,0.96,2.98,3.501v5.321
		l1.501,0.2l-0.1,0.7L73.94,20.074z"/>
	<path clip-path="url(#SVGID_2_)" fill="#BE5927" d="M79.136,15.013c0,2.28,1.22,3.901,3.321,3.901c0.8,0,1.76-0.38,2.5-0.84
		l0.32,0.76c-0.96,0.66-2.221,1.22-3.5,1.58c-2.421,0-4.601-1.72-4.601-4.861c0-2.96,1.78-4.541,4.521-5.141
		c2.641,0,3.54,1.661,3.54,3.761v0.84H79.136z M83.157,14.013c0-1.541-0.3-2.601-1.841-2.601c-1.221,0-2,1.141-2.16,2.801
		L83.157,14.013z"/>
	<path clip-path="url(#SVGID_2_)" fill="#BE5927" d="M99.058,6.792l0.101-0.7l2.56,0.06l2.34-0.06l0.1,0.7l-1.701,0.26v8.162
		c0,2.6-1.059,4.341-5.041,5.261c-3.94,0-5.34-2.12-5.34-5.301V7.052l-1.801-0.26l0.099-0.7l2.762,0.06l2.74-0.06l0.1,0.7l-1.7,0.26
		v8.422c0,2.48,1.06,3.901,3.341,3.901c2.08,0,3.24-1.401,3.24-3.961V7.052L99.058,6.792z"/>
	<path clip-path="url(#SVGID_2_)" fill="#BE5927" d="M106.856,20.074l-2.3,0.06l-0.1-0.7l1.4-0.2v-7.302l-1.4,0.121l-0.101-0.701
		l2.4-0.62l0.862-0.06l0.099,1.68l2.961-1.94c2.561,0,2.981,0.86,2.981,3.261v5.561l1.519,0.2l-0.099,0.7l-2.301-0.06l-1.92,0.06
		l-0.1-0.7l1-0.2v-5.722c0-1.04-0.461-1.5-1.32-1.5c-0.7,0-1.4,0.44-2.08,0.9l-0.601,0.401v5.921l1.101,0.2l-0.101,0.7
		L106.856,20.074z"/>
	<path clip-path="url(#SVGID_2_)" fill="#BE5927" d="M118.316,20.075l-2.301,0.06l-0.099-0.7l1.4-0.201v-7.301l-1.4,0.12l-0.1-0.7
		l2.4-0.62l1-0.08v8.581l1.5,0.201l-0.099,0.7L118.316,20.075z M117.316,6.312l1.439-0.1l0.561,0.1l0.1,1.12l-0.219,0.96
		l-1.421,0.12l-0.54-0.12l-0.12-1.12L117.316,6.312z"/>
	<polygon clip-path="url(#SVGID_2_)" fill="#BE5927" points="126.337,18.834 128.758,11.592 127.838,11.393 127.938,10.692 
		129.697,10.752 131.358,10.692 131.458,11.393 130.178,11.592 126.897,19.814 125.437,20.415 121.956,11.592 120.716,11.393 
		120.816,10.692 123.116,10.752 125.217,10.692 125.316,11.393 123.996,11.592 126.177,17.454 	"/>
	<path clip-path="url(#SVGID_2_)" fill="#BE5927" d="M133.417,15.013c0,2.28,1.22,3.901,3.321,3.901c0.8,0,1.761-0.38,2.501-0.84
		l0.319,0.76c-0.96,0.66-2.22,1.22-3.501,1.58c-2.42,0-4.6-1.72-4.6-4.861c0-2.96,1.78-4.541,4.52-5.141
		c2.641,0,3.541,1.661,3.541,3.761v0.84H133.417z M137.438,14.013c0-1.541-0.301-2.601-1.841-2.601c-1.22,0-2,1.141-2.16,2.801
		L137.438,14.013z"/>
	<path clip-path="url(#SVGID_2_)" fill="#BE5927" d="M143.996,13.313l2.281-2.801h1.6v2.001h-1.481c-0.479,0.1-1.359,0.76-1.9,1.42
		l-0.399,0.48v4.761l2.1,0.2l-0.099,0.76l-2.902-0.06l-2.24,0.06l-0.101-0.7l1.401-0.2v-7.301l-1.401,0.12l-0.099-0.7l2.4-0.621
		l0.801-0.06L143.996,13.313z"/>
	<path clip-path="url(#SVGID_2_)" fill="#BE5927" d="M154.177,11.833c-0.2-0.12-0.8-0.44-1.521-0.44c-0.78,0-1.52,0.42-1.52,1.18
		c0,0.64,0.501,1.04,1.4,1.5l1.54,0.781c1.341,0.68,1.881,1.44,1.881,2.58c0,1.8-1.461,2.481-3.76,2.981
		c-1.22,0-2.521-0.601-3.041-0.9l-0.38-2.261h1.28l0.681,1.661c0.419,0.279,1,0.5,1.639,0.5c1.061,0,1.601-0.681,1.601-1.521
		c0-0.78-0.42-1.12-1.461-1.66l-1.58-0.82c-0.86-0.44-1.68-1.201-1.68-2.321c0-1.4,1.3-2.18,3.621-2.68c1.08,0,2.24,0.48,2.821,0.9
		v2h-1.061L154.177,11.833z"/>
	<path clip-path="url(#SVGID_2_)" fill="#BE5927" d="M159.696,20.075l-2.3,0.06l-0.1-0.7l1.4-0.201v-7.301l-1.4,0.12l-0.101-0.7
		l2.4-0.62l1.001-0.08v8.581l1.5,0.201l-0.099,0.7L159.696,20.075z M158.696,6.312l1.44-0.1l0.561,0.1l0.1,1.12l-0.221,0.96
		l-1.42,0.12l-0.54-0.12l-0.12-1.12L158.696,6.312z"/>
	<path clip-path="url(#SVGID_2_)" fill="#BE5927" d="M169.617,24.815v-2h1.721l1.98-3.021l-0.801,0.24l-3.361-8.422h-3.019v6.101
		c0,0.581,0.219,1.201,1.059,1.201c0.58,0,1.2-0.281,1.761-0.56l0.34,0.68l-2.521,1.38c-2.241,0-2.54-0.8-2.54-2.6v-5.962h-1.941
		v-0.34l0.701-0.7h1.3v-1.3l1.3-1.301h0.52v2.501h6.302l0.099,0.68l-1.32,0.2l2.221,5.861l0.16,1.381l2.48-7.242l-0.92-0.2l0.1-0.7
		l1.76,0.06l1.66-0.06l0.101,0.7l-1.281,0.2l-3.24,8.182l-2.24,5.041H169.617z"/>
	<path clip-path="url(#SVGID_2_)" fill="#BE5927" d="M191.938,15.213c0,2.981-1.82,4.701-4.922,5.201
		c-2.66,0-4.461-2.06-4.461-4.781c0-3,1.82-4.701,4.922-5.221C190.137,10.412,191.938,12.493,191.938,15.213 M187.516,19.434
		c1.602,0,2.421-1.64,2.421-3.801c0-2.54-1.22-4.241-2.96-4.241c-1.621,0-2.421,1.641-2.421,3.821
		C184.556,17.494,185.737,19.434,187.516,19.434"/>
	<path clip-path="url(#SVGID_2_)" fill="#BE5927" d="M196.436,10.912h2.501v0.94h-2.501v7.382l2.301,0.14l-0.1,0.76l-3.101-0.06
		l-2.3,0.06l-0.101-0.7l1.401-0.2v-7.382h-1.76v-0.34l0.599-0.7h1.161v-0.2c0-1.2,0.38-1.98,1.1-2.801l1.681-1.9h2.519v1.601h-2.599
		l-0.381,0.54c-0.279,0.38-0.42,0.96-0.42,2.26V10.912z"/>
	<polygon clip-path="url(#SVGID_2_)" fill="#BE5927" points="214.236,20.134 210.996,20.074 207.634,20.134 207.535,19.434 
		209.935,19.174 209.935,7.051 206.935,7.091 206.014,9.632 205.234,9.632 205.234,6.091 210.976,6.151 216.737,6.091 
		216.737,9.632 215.957,9.632 215.037,7.091 212.036,7.051 212.036,19.174 214.336,19.434 	"/>
	<path clip-path="url(#SVGID_2_)" fill="#BE5927" d="M217.795,15.013c0,2.28,1.22,3.901,3.321,3.901c0.8,0,1.761-0.38,2.501-0.84
		l0.319,0.76c-0.96,0.66-2.22,1.22-3.501,1.58c-2.42,0-4.6-1.72-4.6-4.861c0-2.96,1.78-4.541,4.52-5.141
		c2.641,0,3.541,1.661,3.541,3.761v0.84H217.795z M221.816,14.013c0-1.541-0.301-2.601-1.841-2.601c-1.22,0-2,1.141-2.16,2.801
		L221.816,14.013z"/>
	<polygon clip-path="url(#SVGID_2_)" fill="#BE5927" points="228.455,19.434 228.355,20.134 226.795,20.074 224.734,20.134 
		224.635,19.434 226.035,19.234 228.996,15.593 226.095,11.612 224.854,11.413 224.955,10.692 227.256,10.752 229.156,10.692 
		229.256,11.413 228.476,11.612 229.955,13.833 230.115,14.353 232.016,11.612 231.036,11.413 231.137,10.692 232.696,10.752 
		234.757,10.692 234.857,11.413 233.416,11.612 230.775,14.813 233.916,19.234 235.156,19.434 235.057,20.134 232.756,20.074 
		230.855,20.134 230.756,19.434 231.576,19.234 229.796,16.653 229.636,16.193 227.516,19.234 	"/>
	<path clip-path="url(#SVGID_2_)" fill="#BE5927" d="M239.795,10.413c2.522,0,3.161,0.64,3.161,3.18v3.921
		c0,0.861,0.14,1.18,0.34,1.501h1.001l0.08,0.7l-2.581,0.5l-0.62-1.541l-2.381,1.741c-1.72,0-2.94-0.96-2.94-2.56
		c0-0.721,0.261-1.241,0.7-1.841l4.501-1.5v-1.001c0-1.2-0.101-1.92-1.181-1.92c-0.539,0-1.199,0.18-1.64,0.36l-0.34,1.58h-1.72
		v-1.52L239.795,10.413z M241.056,15.313l-2.901,1.2c-0.299,0.3-0.4,0.7-0.4,1.12c0,1.02,0.58,1.381,1.16,1.381
		c0.56,0,1.04-0.341,1.3-0.52l0.841-0.581V15.313z"/>
	<path clip-path="url(#SVGID_2_)" fill="#BE5927" d="M250.576,11.833c-0.201-0.12-0.801-0.44-1.521-0.44
		c-0.78,0-1.52,0.42-1.52,1.18c0,0.64,0.5,1.04,1.4,1.5l1.54,0.781c1.341,0.68,1.88,1.44,1.88,2.58c0,1.8-1.46,2.481-3.759,2.981
		c-1.221,0-2.522-0.601-3.041-0.9l-0.381-2.261h1.281l0.68,1.661c0.42,0.279,1,0.5,1.64,0.5c1.061,0,1.6-0.681,1.6-1.521
		c0-0.78-0.42-1.12-1.46-1.66l-1.58-0.82c-0.861-0.44-1.681-1.201-1.681-2.321c0-1.4,1.301-2.18,3.621-2.68
		c1.08,0,2.24,0.48,2.821,0.9v2h-1.061L250.576,11.833z"/>
	<path clip-path="url(#SVGID_2_)" fill="#BE5927" d="M262.436,10.413c2.52,0,3.16,0.64,3.16,3.18v3.921
		c0,0.861,0.141,1.18,0.34,1.501h1l0.08,0.7l-2.58,0.5l-0.62-1.541l-2.381,1.741c-1.719,0-2.94-0.96-2.94-2.56
		c0-0.721,0.26-1.241,0.7-1.841l4.501-1.5v-1.001c0-1.2-0.1-1.92-1.18-1.92c-0.541,0-1.201,0.18-1.64,0.36l-0.34,1.58h-1.721v-1.52
		L262.436,10.413z M263.695,15.313l-2.9,1.2c-0.301,0.3-0.401,0.7-0.401,1.12c0,1.02,0.58,1.381,1.16,1.381
		c0.561,0,1.041-0.341,1.301-0.52l0.84-0.581V15.313z"/>
	<path clip-path="url(#SVGID_2_)" fill="#BE5927" d="M266.914,11.853v-0.34l0.701-0.7h1.3v-1.3l1.3-1.301h0.52v2.741h3.021v0.9h-3
		v5.861c0,0.58,0.22,1.201,1.059,1.201c0.58,0,1.021-0.201,1.581-0.48l0.34,0.68l-2.341,1.3c-2.241,0-2.54-0.8-2.54-2.601v-5.961
		H266.914z"/>
	<path clip-path="url(#SVGID_2_)" fill="#BE5927" d="M282.195,15.433l-1.301,3.741l1.74,0.26l-0.099,0.7l-2.401-0.06l-2.14,0.06
		l-0.1-0.7l1.56-0.22l4.961-12.962l1.2-0.341l5.22,13.303l1.561,0.22l-0.1,0.7l-2.76-0.06l-2.64,0.06l-0.101-0.7l1.701-0.26
		l-1.361-3.741H282.195z M284.855,9.212l-0.141-1.08l-2.2,6.361h4.261L284.855,9.212z"/>
	<path clip-path="url(#SVGID_2_)" fill="#BE5927" d="M300.896,17.514c0,0.86,0.101,1.18,0.24,1.5h1l0.08,0.701l-2.581,0.5
		l-0.559-1.621l-2.901,1.821c-2.64,0-3.081-0.941-3.081-3.261v-5.221l-1.4,0.1l-0.1-0.78l2.401-0.52l1-0.08v6.661
		c0,1.04,0.44,1.5,1.42,1.5c0.621,0,1.42-0.5,2.181-1l0.4-0.26v-5.621l-1.201,0.1l-0.099-0.78l2.2-0.52l1-0.08V17.514z"/>
	<path clip-path="url(#SVGID_2_)" fill="#BE5927" d="M308.516,11.833c-0.201-0.12-0.801-0.44-1.521-0.44
		c-0.78,0-1.52,0.42-1.52,1.18c0,0.64,0.5,1.04,1.4,1.5l1.54,0.781c1.341,0.68,1.88,1.44,1.88,2.58c0,1.8-1.46,2.481-3.759,2.981
		c-1.221,0-2.522-0.601-3.041-0.9l-0.381-2.261h1.281l0.68,1.661c0.42,0.279,1,0.5,1.64,0.5c1.061,0,1.6-0.681,1.6-1.521
		c0-0.78-0.42-1.12-1.46-1.66l-1.58-0.82c-0.861-0.44-1.681-1.201-1.681-2.321c0-1.4,1.301-2.18,3.621-2.68
		c1.08,0,2.24,0.48,2.821,0.9v2h-1.061L308.516,11.833z"/>
	<path clip-path="url(#SVGID_2_)" fill="#BE5927" d="M310.934,11.853v-0.34l0.701-0.7h1.3v-1.3l1.3-1.301h0.52v2.741h3.021v0.9h-3
		v5.861c0,0.58,0.22,1.201,1.059,1.201c0.58,0,1.021-0.201,1.581-0.48l0.34,0.68l-2.341,1.3c-2.241,0-2.54-0.8-2.54-2.601v-5.961
		H310.934z"/>
	<path clip-path="url(#SVGID_2_)" fill="#BE5927" d="M321.314,20.075l-2.301,0.06l-0.099-0.7l1.4-0.201v-7.301l-1.4,0.12l-0.101-0.7
		l2.4-0.62l1.001-0.08v8.581l1.5,0.201l-0.099,0.7L321.314,20.075z M320.314,6.312l1.439-0.1l0.561,0.1l0.1,1.12l-0.22,0.96
		l-1.421,0.12l-0.539-0.12l-0.121-1.12L320.314,6.312z"/>
	<path clip-path="url(#SVGID_2_)" fill="#BE5927" d="M327.014,20.074l-2.301,0.06l-0.099-0.7l1.4-0.2v-7.302l-1.4,0.121l-0.1-0.701
		l2.4-0.62l0.86-0.06l0.1,1.68l2.96-1.94c2.561,0,2.982,0.86,2.982,3.261v5.561l1.521,0.2l-0.1,0.7l-2.3-0.06l-1.921,0.06
		l-0.101-0.7l1.001-0.2v-5.722c0-1.04-0.46-1.5-1.32-1.5c-0.7,0-1.4,0.44-2.081,0.9l-0.6,0.401v5.921l1.1,0.2l-0.1,0.7
		L327.014,20.074z"/>
</g>
</svg>
